<svg xmlns="http://www.w3.org/2000/svg" xmlns:xlink="http://www.w3.org/1999/xlink" xmlns:lucid="lucid" width="1541.69" height="1220"><g transform="translate(-9.987293519695047 -9.987293519695058)" lucid:page-tab-id="0_0"><path d="M0 0h1752.76v1239.97H0z" fill="#fff"/><path d="M593.2 234c0-2.77 2.23-5 5-5h150c2.75 0 5 2.23 5 5v110c0 2.75-2.25 5-5 5h-150c-2.77 0-5-2.25-5-5z" stroke="#000" stroke-width="2" fill="#fff"/><use xlink:href="#a" transform="matrix(1,0,0,1,601.186584928021,236.98729351969507) translate(20.049999999999997 55.6)"/><path d="M1013.2 175.7c0-2.76 1.92-6.12 4.3-7.5l71.36-41.5c2.4-1.4 6.26-1.4 8.65 0l71.36 41.5c2.4 1.38 4.33 4.74 4.33 7.5v63.5c0 2.75-2.25 5-5 5h-150c-2.77 0-5-2.25-5-5z" stroke="#000" stroke-width="2" fill="#fff"/><use xlink:href="#b" transform="matrix(1,0,0,1,1013.1865849280209,124.18658492798224) translate(29.074999999999996 63.6)"/><path d="M755.45 289.63l-.62-1.9L896.4 241.3h6.43zm255.32-83.72l-42.06 13.8h-6.4l47.85-15.7z"/><path d="M755.47 289.62l-1.28.42v-2.1l.65-.22zM1012.2 204.4l-14.3 16.3-1.52-1.3 12.07-13.78-17.88-3.94.44-1.96z"/><use xlink:href="#c" transform="matrix(1,0,0,1,869.1386481153338,219.70371611395555) translate(0.010000000000005116 14.4)"/><use xlink:href="#d" transform="matrix(1,0,0,1,869.1386481153338,219.70371611395555) translate(106.86000000000001 14.4)"/><path d="M773.2 534.9l-1.75.96-45.1-84.36h2.26zm-67.7-126.6h-2.26l-30.46-56.96 1.76-.94z"/><path d="M674.55 350.42l-1.76.94-.75-1.37h2.27zM774.12 515.32L773.2 537l-18.55-11.27 1.03-1.7 15.65 9.5.8-18.3z"/><use xlink:href="#e" transform="matrix(1,0,0,1,660.5210631093231,408.30076771872984) translate(0.005000000000002558 14.4)"/><use xlink:href="#f" transform="matrix(1,0,0,1,660.5210631093231,408.30076771872984) translate(8.455000000000005 36)"/><path d="M560.06 770.3l-.92-1.76 35.07-18.14h4.37zm212.7-109.97L640.34 728.8h-4.36l135.86-70.24z"/><path d="M772.73 660.35l-.7-1.36h3.33zM571.2 752.94l-9.72 15.52 18.28 1.04-.05.76H558l11.5-18.38z"/><use xlink:href="#g" transform="matrix(1,0,0,1,565.2751420723412,728.8048550271399) translate(0 14.4)"/><use xlink:href="#h" transform="matrix(1,0,0,1,565.2751420723412,728.8048550271399) translate(34 14.4)"/><use xlink:href="#i" transform="matrix(1,0,0,1,565.2751420723412,728.8048550271399) translate(64 14.4)"/><path d="M510.4 770.76h95.2V830h-95.2z" stroke="#000" fill="#fff"/><use xlink:href="#j" transform="matrix(1,0,0,1,515.3876478155321,775.7609870582014) translate(21.525 17.799999999999997)"/><use xlink:href="#k" transform="matrix(1,0,0,1,515.3876478155321,775.7609870582014) translate(23 39.4)"/><path d="M736.3 770.76h95.2V830h-95.2z" stroke="#000" fill="#fff"/><use xlink:href="#j" transform="matrix(1,0,0,1,741.2876478155317,775.7609870582014) translate(21.525 17.799999999999997)"/><use xlink:href="#k" transform="matrix(1,0,0,1,741.2876478155317,775.7609870582014) translate(23 39.4)"/><path d="M784.7 768.36l-1.98.2-1.63-16.96h2zM781.03 730h-2l-1.32-13.63h2zm-3.4-35.23h-2l-3.33-34.7 1.98-.18z"/><path d="M774.28 659.9l-2 .2-.1-1.1h2zM783.9 770.26l-12.8-17.53 1.56-1.13h.1l10.75 14.75 6.92-14.75h2.2z"/><use xlink:href="#l" transform="matrix(1,0,0,1,722.0545784728243,730.0043708624637) translate(0 14.4)"/><use xlink:href="#m" transform="matrix(1,0,0,1,722.0545784728243,730.0043708624637) translate(34 14.4)"/><use xlink:href="#n" transform="matrix(1,0,0,1,722.0545784728243,730.0043708624637) translate(78 14.4)"/><path d="M1331.68 715c0-2.77 2.24-5 5-5h150c2.76 0 5 2.23 5 5v30c0 2.75-2.24 5-5 5h-150c-2.76 0-5-2.25-5-5z" stroke="#000" stroke-opacity="0" stroke-width="2" fill="#fff" fill-opacity="0"/><use xlink:href="#o" transform="matrix(1,0,0,1,1336.680827620668,714.987293519696) translate(0 22.799999999999997)"/><path d="M1331.68 377.65c0-2.76 2.24-5 5-5h150c2.76 0 5 2.24 5 5v110c0 2.77-2.24 5-5 5h-150c-2.76 0-5-2.23-5-5z" stroke="#000" stroke-width="2" fill="#b2b2b2"/><use xlink:href="#p" transform="matrix(1,0,0,1,1339.680827620668,380.6539601863617) translate(51 44.8)"/><use xlink:href="#q" transform="matrix(1,0,0,1,1339.680827620668,380.6539601863617) translate(38.525 66.4)"/><path d="M1331.68 235c0-2.77 2.24-5 5-5h150c2.76 0 5 2.23 5 5v110c0 2.75-2.24 5-5 5h-150c-2.76 0-5-2.25-5-5z" stroke="#000" stroke-width="2" fill="#666"/><use xlink:href="#r" transform="matrix(1,0,0,1,1339.680827620668,237.98729351969507) translate(27.049999999999997 55.6)"/><use xlink:href="#s" transform="matrix(1,0,0,1,1339.680827620668,237.98729351969507) translate(72.05 55.6)"/><path d="M1331.68 35c0-2.77 2.24-5 5-5h190c2.76 0 5 2.23 5 5v50c0 2.75-2.24 5-5 5h-190c-2.76 0-5-2.25-5-5z" stroke="#000" stroke-opacity="0" stroke-width="2" fill="#fff" fill-opacity="0"/><use xlink:href="#t" transform="matrix(1,0,0,1,1336.680827620668,34.98729351969506) translate(0 28.6)"/><use xlink:href="#u" transform="matrix(1,0,0,1,1336.680827620668,34.98729351969506) translate(72.80000000000001 28.6)"/><use xlink:href="#v" transform="matrix(1,0,0,1,1336.680827620668,34.98729351969506) translate(143.70000000000002 28.6)"/><path d="M1331.68 92.32c0-2.76 2.24-5 5-5h150c2.76 0 5 2.24 5 5v110c0 2.76-2.24 5-5 5h-150c-2.76 0-5-2.24-5-5z" stroke="#000" stroke-width="2" fill="#fff"/><use xlink:href="#w" transform="matrix(1,0,0,1,1339.680827620668,95.32062685302841) translate(33.599999999999994 44.8)"/><use xlink:href="#x" transform="matrix(1,0,0,1,1339.680827620668,95.32062685302841) translate(5.099999999999994 66.4)"/><use xlink:href="#y" transform="matrix(1,0,0,1,1339.680827620668,95.32062685302841) translate(92 66.4)"/><path d="M1332.68 690h117.18M1332.7 690h-1.02M1432.5 700.17l17.22-10.18-17.22-10.2" stroke="#000" stroke-width="2" fill="none"/><path d="M1331.68 566.84c0-2.76 1.94-6.13 4.32-7.5l71.36-41.5c2.4-1.4 6.26-1.4 8.64 0l71.36 41.5c2.4 1.37 4.32 4.74 4.32 7.5v63.48c0 2.76-2.24 5-5 5h-150c-2.76 0-5-2.24-5-5z" stroke="#000" stroke-width="2" fill="#fff"/><use xlink:href="#z" transform="matrix(1,0,0,1,1331.680827620668,515.3206268530284) translate(60.025 52.8)"/><use xlink:href="#A" transform="matrix(1,0,0,1,1331.680827620668,515.3206268530284) translate(56.5 74.4)"/><path d="M755.6 289.15l-1.25-1.57L916.4 159.2h3.22zM1011.87 86.1l-65 51.5h-3.22l66.98-53.07z"/><path d="M755.6 289.13l-1.4 1.13v-2.55l.17-.13zM1004.9 104.44l-1.86-.72 6.57-17.1-18.13 2.5-.27-2 21.5-2.93z"/><use xlink:href="#B" transform="matrix(1,0,0,1,864.6899214644848,137.59708437218453) translate(0.0049999999999954525 14.4)"/><use xlink:href="#C" transform="matrix(1,0,0,1,864.6899214644848,137.59708437218453) translate(40.004999999999995 14.4)"/><use xlink:href="#d" transform="matrix(1,0,0,1,864.6899214644848,137.59708437218453) translate(113.905 14.4)"/><path d="M1331.68 815c0-2.77 2.24-5 5-5h150c2.76 0 5 2.23 5 5v30c0 2.75-2.24 5-5 5h-150c-2.76 0-5-2.25-5-5z" stroke="#000" stroke-opacity="0" stroke-width="2" fill="#fff" fill-opacity="0"/><use xlink:href="#D" transform="matrix(1,0,0,1,1336.680827620668,814.9872935196928) translate(0 22.799999999999997)"/><path d="M1332.68 790h100.5M1332.7 790h-1.02" stroke="#000" stroke-width="2" fill="none"/><path d="M1448.44 790l-14.26 4.62v-9.27z" stroke="#000" stroke-width="2" fill="#fff"/><path d="M341.05 468.75l-1.16-1.63 75.6-53.76h3.46zm250.9-178.37l-142.6 101.38h-3.46l144.9-103z"/><path d="M592.2 290.2l-.27.2-1.16-1.63 1.42-1zM349.63 449.98l-7.44 16.73 18.23-1.52.17 2-21.6 1.8 8.8-19.8z"/><use xlink:href="#l" transform="matrix(1,0,0,1,351.5276198339286,391.7603353595145) translate(0 14.4)"/><use xlink:href="#E" transform="matrix(1,0,0,1,351.5276198339286,391.7603353595145) translate(34 14.4)"/><use xlink:href="#F" transform="matrix(1,0,0,1,351.5276198339286,391.7603353595145) translate(102.80000000000001 14.4)"/><use xlink:href="#d" transform="matrix(1,0,0,1,351.5276198339286,391.7603353595145) translate(141.8 14.4)"/><path d="M178 55c0-2.77 2.23-5 5-5h150c2.75 0 5 2.23 5 5v110c0 2.75-2.25 5-5 5H183c-2.77 0-5-2.25-5-5z" stroke="#000" stroke-width="2" fill="#b2b2b2"/><use xlink:href="#G" transform="matrix(1,0,0,1,185.98729351969502,57.987293519695044) translate(2.0999999999999943 55.6)"/><use xlink:href="#H" transform="matrix(1,0,0,1,185.98729351969502,57.987293519695044) translate(81.95 55.6)"/><path d="M178 234c0-2.77 2.23-5 5-5h150c2.75 0 5 2.23 5 5v110c0 2.75-2.25 5-5 5H183c-2.77 0-5-2.25-5-5z" stroke="#000" stroke-width="2" fill="#b2b2b2"/><use xlink:href="#I" transform="matrix(1,0,0,1,185.98729351969502,236.98729351969507) translate(19.574999999999996 55.6)"/><use xlink:href="#J" transform="matrix(1,0,0,1,185.98729351969502,236.98729351969507) translate(85.475 55.6)"/><path d="M592 287.6l-1.2 1.58L444.43 178.7h3.32zM419.14 157.1h-3.32l-77-58.12 1.2-1.6z"/><path d="M592.2 287.73v2.5l-1.43-1.06 1.2-1.6zM359.54 99.52l-.22 2-18.2-2.07 6.97 16.94-1.86.75L338 97.1z"/><use xlink:href="#l" transform="matrix(1,0,0,1,372.32165849037403,157.10558814456078) translate(0 14.4)"/><use xlink:href="#K" transform="matrix(1,0,0,1,372.32165849037403,157.10558814456078) translate(34 14.4)"/><use xlink:href="#d" transform="matrix(1,0,0,1,372.32165849037403,157.10558814456078) translate(98.95 14.4)"/><path d="M178 414c0-2.77 2.23-5 5-5h150c2.75 0 5 2.23 5 5v110c0 2.75-2.25 5-5 5H183c-2.77 0-5-2.25-5-5z" stroke="#000" stroke-width="2" fill="#b2b2b2"/><use xlink:href="#L" transform="matrix(1,0,0,1,185.98729351969502,416.9872935196563) translate(18.124999999999993 55.6)"/><use xlink:href="#J" transform="matrix(1,0,0,1,185.98729351969502,416.9872935196563) translate(86.92500000000001 55.6)"/><path d="M371.46 290H340.8v-2h30.66zm219.73 0h-63.84v-2h63.83z"/><path d="M592.2 290h-1.04v-2h1.03zM358.68 279.67L342.92 289l15.76 9.3-1.02 1.73L339 289l18.66-11.05z"/><use xlink:href="#l" transform="matrix(1,0,0,1,371.46139713224085,278.18729351969506) translate(0 14.4)"/><use xlink:href="#M" transform="matrix(1,0,0,1,371.46139713224085,278.18729351969506) translate(34 14.4)"/><use xlink:href="#F" transform="matrix(1,0,0,1,371.46139713224085,278.18729351969506) translate(96.9 14.4)"/><use xlink:href="#d" transform="matrix(1,0,0,1,371.46139713224085,278.18729351969506) translate(135.9 14.4)"/><path d="M564.57 535.93l-1.72-1.02 30.9-52.34h2.33zm108.97-184.57l-51.96 88h-2.32l52.56-89.02z"/><path d="M673.53 351.38l-1.73-1.02.23-.37h2.32zM564.8 533.6l16.02-8.83.97 1.75-19 10.47-.03-21.7h2z"/><use xlink:href="#N" transform="matrix(1,0,0,1,532.721067100135,439.36156077239696) translate(57.455 14.4)"/><use xlink:href="#O" transform="matrix(1,0,0,1,532.721067100135,439.36156077239696) translate(0.0049999999999954525 36)"/><use xlink:href="#P" transform="matrix(1,0,0,1,532.721067100135,439.36156077239696) translate(112.905 36)"/><path d="M482.8 543c0-2.77 2.23-5 5-5h150c2.75 0 5 2.23 5 5v110c0 2.75-2.25 5-5 5h-150c-2.77 0-5-2.25-5-5z" stroke="#000" stroke-width="2" fill="#fff"/><use xlink:href="#N" transform="matrix(1,0,0,1,490.7880021113691,545.987293519695) translate(54.5 44.8)"/><use xlink:href="#Q" transform="matrix(1,0,0,1,490.7880021113691,545.987293519695) translate(32.55 66.4)"/><path d="M693.2 543c0-2.77 2.23-5 5-5h150c2.75 0 5 2.23 5 5v110c0 2.75-2.25 5-5 5h-150c-2.77 0-5-2.25-5-5z" stroke="#000" stroke-width="2" fill="#fff"/><use xlink:href="#R" transform="matrix(1,0,0,1,701.186584928021,545.987293519695) translate(52.525 44.8)"/><use xlink:href="#S" transform="matrix(1,0,0,1,701.186584928021,545.987293519695) translate(35.05 66.4)"/><path d="M1011.52 522.22l-1.35 1.48-54.9-50.04h2.97zm-76.97-70.16h-2.97L754.25 290.4l1.35-1.48z"/><path d="M755.62 288.94l-1.35 1.48-.08-2.8zM1012.2 524.2l-21.25-4.43.4-1.96 17.93 3.74-5.36-17.5 1.9-.6z"/><use xlink:href="#T" transform="matrix(1,0,0,1,880.9358998298637,452.0563777028132) translate(0.010000000000005116 14.4)"/><use xlink:href="#d" transform="matrix(1,0,0,1,880.9358998298637,452.0563777028132) translate(107.96000000000001 14.4)"/><path d="M178 735.76c0-2.76 2.23-5 5-5h150c2.75 0 5 2.24 5 5v110c0 2.76-2.25 5-5 5H183c-2.77 0-5-2.24-5-5z" stroke="#000" stroke-width="2" fill="#b2b2b2"/><use xlink:href="#U" transform="matrix(1,0,0,1,185.98729351969502,738.7609870582014) translate(36.05 55.6)"/><path d="M340.7 789.6l-1.8-.9 34.55-68.46h2.24zm251.93-499.27L386.6 698.63h-2.25l206.5-409.2z"/><path d="M592.2 290.14l-1.37-.7 1.36-2.67zM340.76 787.25l15.42-9.87 1.08 1.7L339 790.75v-21.74l.54-.04z"/><use xlink:href="#l" transform="matrix(1,0,0,1,317.595475847835,698.6441265728931) translate(0 14.4)"/><use xlink:href="#V" transform="matrix(1,0,0,1,317.595475847835,698.6441265728931) translate(34 14.4)"/><use xlink:href="#d" transform="matrix(1,0,0,1,317.595475847835,698.6441265728931) translate(104.85 14.4)"/><path d="M898 774c0-2.77 2.23-5 5-5h150c2.75 0 5 2.23 5 5v110c0 2.75-2.25 5-5 5H903c-2.77 0-5-2.25-5-5z" stroke="#000" stroke-width="2" fill="#666"/><use xlink:href="#W" transform="matrix(1,0,0,1,905.9872935196952,776.987293519654) translate(50.5 44.8)"/><use xlink:href="#X" transform="matrix(1,0,0,1,905.9872935196952,776.987293519654) translate(16.125 66.4)"/><path d="M898 969.2c0-2.77 2.23-5 5-5h150c2.75 0 5 2.23 5 5v110c0 2.75-2.25 5-5 5H903c-2.77 0-5-2.25-5-5z" stroke="#000" stroke-width="2" fill="#fff"/><use xlink:href="#Y" transform="matrix(1,0,0,1,905.9872935196952,972.186584927982) translate(4.4691358024691255 44.84330484330484)"/><use xlink:href="#Z" transform="matrix(1,0,0,1,905.9872935196952,972.186584927982) translate(88.27160493827161 44.84330484330484)"/><use xlink:href="#aa" transform="matrix(1,0,0,1,905.9872935196952,972.186584927982) translate(45.87654320987654 66.26780626780626)"/><path d="M978 962.2v-70.4" fill="none"/><path d="M978 962.2v-11.74m0-11.73v-23.46m0-11.73V891.8" stroke="#000" stroke-width="2" fill="none"/><path d="M979 963.2h-2v-1.04h2z"/><path d="M988.17 909.17L978 891.95l-10.2 17.22" stroke="#000" stroke-width="2" fill="none"/><path d="M1331.68 915c0-2.77 2.24-5 5-5h150c2.76 0 5 2.23 5 5v30c0 2.75-2.24 5-5 5h-150c-2.76 0-5-2.25-5-5z" stroke="#000" stroke-opacity="0" stroke-width="2" fill="#fff" fill-opacity="0"/><use xlink:href="#ab" transform="matrix(1,0,0,1,1336.680827620668,914.9872935196929) translate(0 22.799999999999997)"/><path d="M1332.68 890h117.18" fill="none"/><path d="M1332.68 890h9.77m9.76 0h19.54m9.77 0h19.54m9.76 0h19.53m9.77 0h9.76M1332.7 890h-1.02M1432.5 900.17l17.22-10.18-17.22-10.2" stroke="#000" stroke-width="2" fill="none"/><path d="M703.9 969.74c0-2.76 2.23-5 5-5h150c2.75 0 5 2.24 5 5v110c0 2.76-2.25 5-5 5h-150c-2.77 0-5-2.24-5-5z" stroke="#000" stroke-width="2" fill="#fff"/><use xlink:href="#ac" transform="matrix(1,0,0,1,711.8872935196947,972.7401721466674) translate(52 44.8)"/><use xlink:href="#ad" transform="matrix(1,0,0,1,711.8872935196947,972.7401721466674) translate(56.05 66.4)"/><path d="M976.85 766.25l-.94 1.77-97.03-51.65h4.26zm-134.3-71.48h-4.26l-64.7-34.43.94-1.77z"/><path d="M773.62 660.35l-2.56-1.36h3.3zM978 768h-21.73l-.04-1.04 18.3-.82-9.54-15.63 1.7-1.03z"/><use xlink:href="#ae" transform="matrix(1,0,0,1,773.857099056282,694.7678747372968) translate(0.0049999999999954525 14.4)"/><use xlink:href="#d" transform="matrix(1,0,0,1,773.857099056282,694.7678747372968) translate(153.70499999999998 14.4)"/><path d="M478 964.74h160v40H478z" stroke="#000" fill="#fff"/><use xlink:href="#af" transform="matrix(1,0,0,1,482.9872935196951,969.7401721466674) translate(27.574999999999996 18.6)"/><path d="M559 962.42h-2v-54.26h2zm0-75.86h-2V831.5h2zM559 831.5h-2v-1h2z"/><path d="M569.03 945.57L558 964.24l-11.05-18.67 1.72-1.02L558 960.3l9.3-15.75z"/><use xlink:href="#ag" transform="matrix(1,0,0,1,471.26229351969505,886.5637326024345) translate(0 14.4)"/><use xlink:href="#ah" transform="matrix(1,0,0,1,471.26229351969505,886.5637326024345) translate(153.45000000000002 14.4)"/><path d="M784.9 961.92h-2v-54h2zm0-75.6h-2V874h2zm0-33.9h-2V831.5h2zM784.9 831.5h-2v-1h2z"/><path d="M783.9 959.8l9.3-15.75 1.73 1.02-11.04 18.67-11.05-18.67 1.72-1.02z"/><use xlink:href="#ai" transform="matrix(1,0,0,1,736.9122935196947,886.3137326024345) translate(0 14.4)"/><use xlink:href="#ah" transform="matrix(1,0,0,1,736.9122935196947,886.3137326024345) translate(73.95 14.4)"/><path d="M560.06 964.17l-1.02-1.72 149.37-88.43h3.93zm223.48-132.3L748.8 852.4h-3.9l37.62-22.28z"/><path d="M783.5 831.87l-.8-1.38h3.15zM570.18 946.2l-8.8 16.04h18.3v2h-21.7l10.45-19z"/><use xlink:href="#ag" transform="matrix(1,0,0,1,641.8848492459324,852.4164533958196) translate(0 14.4)"/><use xlink:href="#ah" transform="matrix(1,0,0,1,641.8848492459324,852.4164533958196) translate(153.45000000000002 14.4)"/><path d="M782.83 961.96l-1.02 1.72-43.06-25.4h3.94zm-76.77-45.3h-3.94l-143.78-84.8 1.02-1.73z"/><path d="M558.36 831.87l-2.34-1.38h3.16zM783.9 963.74h-21.7v-1.98l18.3-.02-8.84-16.03 1.76-.96z"/><g><use xlink:href="#ai" transform="matrix(1,0,0,1,675.4271655443033,916.6716005493072) translate(0 14.4)"/><use xlink:href="#ah" transform="matrix(1,0,0,1,675.4271655443033,916.6716005493072) translate(73.95 14.4)"/></g><path d="M1013.2 64.2h160v40h-160z" stroke="#000" fill="#fff"/><g><use xlink:href="#aj" transform="matrix(1,0,0,1,1018.1865849280209,69.18658492798224) translate(41 18.6)"/></g><path d="M877.78 287.65l-122.58 1.4-.02-2 122.6-1.4zm133.1-1.52l-38.25.43v-2l38.23-.43z"/><path d="M755.22 289.05h-1.03v-2h1zM1012.7 285.1l-18.56 11.26-1.03-1.7 15.66-9.5L992.9 276l1-1.72z"/><g><use xlink:href="#ak" transform="matrix(1,0,0,1,877.7835313968708,264.5066175108541) translate(0.005000000000002558 14.4)"/><use xlink:href="#al" transform="matrix(1,0,0,1,877.7835313968708,264.5066175108541) translate(0.9550000000000054 36)"/><use xlink:href="#d" transform="matrix(1,0,0,1,877.7835313968708,264.5066175108541) translate(73.905 36)"/></g><path d="M1013.2 264.2h160v40h-160z" stroke="#000" fill="#fff"/><g><use xlink:href="#am" transform="matrix(1,0,0,1,1018.1865849280209,269.18658492798227) translate(36.55 18.6)"/></g><path d="M1013.2 329.2c0-2.77 2.23-5 5-5h150c2.75 0 5 2.23 5 5v110c0 2.75-2.25 5-5 5h-150c-2.77 0-5-2.25-5-5z" stroke="#000" stroke-width="2" fill="#b2b2b2"/><g><use xlink:href="#p" transform="matrix(1,0,0,1,1021.1865849280209,332.18658492802103) translate(51 44.8)"/><use xlink:href="#q" transform="matrix(1,0,0,1,1021.1865849280209,332.18658492802103) translate(38.525 66.4)"/></g><path d="M1010.78 374.66l-.64 1.9-46-15.56v-2.1zm-131.65-44.5v2.1l-124.32-42 .65-1.9z"/><path d="M755.48 288.37l-.64 1.9-.65-.23v-2.1zM1012.2 376.2l-21.24 4.47-.4-1.96 17.9-3.77-11.94-13.88 1.5-1.3z"/><g><use xlink:href="#an" transform="matrix(1,0,0,1,879.1349151095511,323.9817731295026) translate(0.005000000000002558 14.4)"/><use xlink:href="#ao" transform="matrix(1,0,0,1,879.1349151095511,323.9817731295026) translate(4.555 36)"/><use xlink:href="#d" transform="matrix(1,0,0,1,879.1349151095511,323.9817731295026) translate(60.455000000000005 36)"/></g><path d="M1013.2 469.2c0-2.77 2.23-5 5-5h150c2.75 0 5 2.23 5 5v110c0 2.75-2.25 5-5 5h-150c-2.77 0-5-2.25-5-5z" stroke="#000" stroke-width="2" fill="#fff"/><g><use xlink:href="#ap" transform="matrix(1,0,0,1,1021.1865849280209,472.1865849279824) translate(38.419753086419746 34.13105413105413)"/><use xlink:href="#aq" transform="matrix(1,0,0,1,1021.1865849280209,472.1865849279824) translate(26.641975308641975 55.55555555555555)"/><use xlink:href="#ar" transform="matrix(1,0,0,1,1021.1865849280209,472.1865849279824) translate(62.19753086419753 55.55555555555555)"/><use xlink:href="#as" transform="matrix(1,0,0,1,1021.1865849280209,472.1865849279824) translate(21.160493827160494 76.98005698005699)"/><use xlink:href="#at" transform="matrix(1,0,0,1,1021.1865849280209,472.1865849279824) translate(84.32098765432099 76.98005698005699)"/></g><path d="M1013.2 612.38c0-2.77 2.23-5 5-5h150c2.75 0 5 2.23 5 5v110c0 2.76-2.25 5-5 5h-150c-2.77 0-5-2.24-5-5z" stroke="#000" stroke-width="2" fill="#fff"/><g><use xlink:href="#au" transform="matrix(1,0,0,1,1021.1865849280209,615.375247461234) translate(50.76543209876543 44.84330484330484)"/><use xlink:href="#av" transform="matrix(1,0,0,1,1021.1865849280209,615.375247461234) translate(9.432098765432087 66.26780626780626)"/></g><path d="M1012 665.3l-1.66 1.14-71.62-105.04h2.42zM880.93 473.1v.56h.37l45.1 66.14H924L753.9 290.38l1.66-1.13z"/><path d="M755.6 289.27l-1.4.96v-3.02zM1012.2 667.38l-19.65-9.2.84-1.82 16.57 7.77-1.17-18.27 2-.13z"/><g><use xlink:href="#l" transform="matrix(1,0,0,1,883.5636481153338,539.7986577427491) translate(0.010000000000005116 14.4)"/><use xlink:href="#aw" transform="matrix(1,0,0,1,883.5636481153338,539.7986577427491) translate(34.010000000000005 14.4)"/><use xlink:href="#d" transform="matrix(1,0,0,1,883.5636481153338,539.7986577427491) translate(78.01 14.4)"/></g><path d="M178 574.87c0-2.76 2.23-5 5-5h150c2.75 0 5 2.24 5 5v110c0 2.77-2.25 5-5 5H183c-2.77 0-5-2.23-5-5z" stroke="#000" stroke-width="2" fill="#fff"/><g><use xlink:href="#ax" transform="matrix(1,0,0,1,185.98729351969502,577.8741402889289) translate(47 44.8)"/><use xlink:href="#ay" transform="matrix(1,0,0,1,185.98729351969502,577.8741402889289) translate(18.624999999999993 66.4)"/></g><path d="M258 567.87V548.5" stroke="#000" stroke-width="2" fill="none"/><path d="M259 568.87h-2v-1.02h2z"/><path d="M258 533.22l4.62 14.27h-9.27z" stroke="#000" stroke-width="2" fill="#fff"/><g fill="none"><path d="M458 1150v-80h620v80z"/><path d="M1078 1070c0 21.4-17.36 38.74-38.76 38.74h-232.5c-21.4 0-38.75 17.35-38.75 38.75 0-21.4-17.36-38.76-38.76-38.76h-232.5c-21.4 0-38.75-17.35-38.75-38.75" stroke="#19967d" stroke-width="2"/></g><path d="M648 1150h240v60H648z" stroke="#000" stroke-opacity="0" stroke-width="2" fill="#fff" fill-opacity="0"/><g><use xlink:href="#az" transform="matrix(1,0,0,1,652.9872935196951,1154.987293519695) translate(36.099999999999994 28.6)"/><use xlink:href="#aA" transform="matrix(1,0,0,1,652.9872935196951,1154.987293519695) translate(118.95 28.6)"/></g><g><path d="M30 620V280h54.2v340z" stroke="#000" stroke-opacity="0" stroke-width="2" fill="#fff" fill-opacity="0"/></g><g><use xlink:href="#aB" transform="matrix(6.123233995736766e-17,-1,1,6.123233995736766e-17,34.98729351969507,614.9872935196951) translate(39.19999999999999 26.1)"/><use xlink:href="#aC" transform="matrix(6.123233995736766e-17,-1,1,6.123233995736766e-17,34.98729351969507,614.9872935196951) translate(105.1 26.1)"/><use xlink:href="#aD" transform="matrix(6.123233995736766e-17,-1,1,6.123233995736766e-17,34.98729351969507,614.9872935196951) translate(215.85000000000002 26.1)"/></g><g fill="none"><path d="M1238 754.2h-80v-713h80z"/><path d="M1158 41.2c24.6 0 44.55 19.94 44.55 44.55v267.37c0 24.62 19.95 44.57 44.56 44.57-24.6 0-44.55 19.94-44.55 44.55v267.37c0 24.62-19.95 44.57-44.56 44.57" stroke="#0c7cba" stroke-width="2"/></g><g><path d="M1285.32 290v272.4H1238V290z" stroke="#000" stroke-opacity="0" stroke-width="2" fill="#fff" fill-opacity="0"/></g><g><use xlink:href="#aE" transform="matrix(6.123233995736766e-17,1,-1,6.123233995736766e-17,1280.3206268530284,294.9872935196951) translate(6.125 22.6)"/><use xlink:href="#aF" transform="matrix(6.123233995736766e-17,1,-1,6.123233995736766e-17,1280.3206268530284,294.9872935196951) translate(55.075 22.6)"/><use xlink:href="#aG" transform="matrix(6.123233995736766e-17,1,-1,6.123233995736766e-17,1280.3206268530284,294.9872935196951) translate(141.97500000000002 22.6)"/><use xlink:href="#aH" transform="matrix(6.123233995736766e-17,1,-1,6.123233995736766e-17,1280.3206268530284,294.9872935196951) translate(181.925 22.6)"/></g><path d="M118 30h80v840h-80z" fill="none"/><path d="M198 870c-29 0-52.5-23.52-52.5-52.5v-315c0-29-23.52-52.5-52.5-52.5 28.98 0 52.5-23.52 52.5-52.5v-315c0-29 23.5-52.5 52.5-52.5" stroke="#c92d39" stroke-width="2" fill="none"/><defs><path d="M135-143c-3-34-86-38-87 0 15 53 115 12 119 90S17 21 10-45l28-5c4 36 97 45 98 0-10-56-113-15-118-90-4-57 82-63 122-42 12 7 21 19 24 35" id="aI"/><path d="M100-194c62-1 85 37 85 99 1 63-27 99-86 99S16-35 15-95c0-66 28-99 85-99zM99-20c44 1 53-31 53-75 0-43-8-75-51-75s-53 32-53 75 10 74 51 75" id="aJ"/><path d="M141-36C126-15 110 5 73 4 37 3 15-17 15-53c-1-64 63-63 125-63 3-35-9-54-41-54-24 1-41 7-42 31l-33-3c5-37 33-52 76-52 45 0 72 20 72 64v82c-1 20 7 32 28 27v20c-31 9-61-2-59-35zM48-53c0 20 12 33 32 33 41-3 63-29 60-74-43 2-92-5-92 41" id="aK"/><path d="M33-154v-36h34v36H33zM33 0v-36h34V0H33" id="aL"/><path d="M185-189c-5-48-123-54-124 2 14 75 158 14 163 119 3 78-121 87-175 55-17-10-28-26-33-46l33-7c5 56 141 63 141-1 0-78-155-14-162-118-5-82 145-84 179-34 5 7 8 16 11 25" id="aM"/><path d="M210-169c-67 3-38 105-44 169h-31v-121c0-29-5-50-35-48C34-165 62-65 56 0H25l-1-190h30c1 10-1 24 2 32 10-44 99-50 107 0 11-21 27-35 58-36 85-2 47 119 55 194h-31v-121c0-29-5-49-35-48" id="aN"/><path d="M115-194c55 1 70 41 70 98S169 2 115 4C84 4 66-9 55-30l1 105H24l-1-265h31l2 30c10-21 28-34 59-34zm-8 174c40 0 45-34 45-75s-6-73-45-74c-42 0-51 32-51 76 0 43 10 73 51 73" id="aO"/><path d="M24 0v-261h32V0H24" id="aP"/><path d="M100-194c63 0 86 42 84 106H49c0 40 14 67 53 68 26 1 43-12 49-29l28 8c-11 28-37 45-77 45C44 4 14-33 15-96c1-61 26-98 85-98zm52 81c6-60-76-77-97-28-3 7-6 17-6 28h103" id="aQ"/><g id="a"><use transform="matrix(0.05,0,0,0.05,0,0)" xlink:href="#aI"/><use transform="matrix(0.05,0,0,0.05,9,0)" xlink:href="#aJ"/><use transform="matrix(0.05,0,0,0.05,19,0)" xlink:href="#aI"/><use transform="matrix(0.05,0,0,0.05,28,0)" xlink:href="#aK"/><use transform="matrix(0.05,0,0,0.05,38,0)" xlink:href="#aL"/><use transform="matrix(0.05,0,0,0.05,43,0)" xlink:href="#aM"/><use transform="matrix(0.05,0,0,0.05,55,0)" xlink:href="#aK"/><use transform="matrix(0.05,0,0,0.05,65,0)" xlink:href="#aN"/><use transform="matrix(0.05,0,0,0.05,79.95,0)" xlink:href="#aO"/><use transform="matrix(0.05,0,0,0.05,89.95,0)" xlink:href="#aP"/><use transform="matrix(0.05,0,0,0.05,93.9,0)" xlink:href="#aQ"/></g><path d="M140-251c81 0 123 46 123 126C263-46 219 4 140 4 59 4 17-45 17-125s42-126 123-126zm0 227c63 0 89-41 89-101s-29-99-89-99c-61 0-89 39-89 99S79-25 140-24" id="aR"/><path d="M114-163C36-179 61-72 57 0H25l-1-190h30c1 12-1 29 2 39 6-27 23-49 58-41v29" id="aS"/><path d="M177-190C167-65 218 103 67 71c-23-6-38-20-44-43l32-5c15 47 100 32 89-28v-30C133-14 115 1 83 1 29 1 15-40 15-95c0-56 16-97 71-98 29-1 48 16 59 35 1-10 0-23 2-32h30zM94-22c36 0 50-32 50-73 0-42-14-75-50-75-39 0-46 34-46 75s6 73 46 73" id="aT"/><path d="M117-194c89-4 53 116 60 194h-32v-121c0-31-8-49-39-48C34-167 62-67 57 0H25l-1-190h30c1 10-1 24 2 32 11-22 29-35 61-36" id="aU"/><path d="M24-231v-30h32v30H24zM24 0v-190h32V0H24" id="aV"/><path d="M59-47c-2 24 18 29 38 22v24C64 9 27 4 27-40v-127H5v-23h24l9-43h21v43h35v23H59v120" id="aW"/><g id="b"><use transform="matrix(0.05,0,0,0.05,0,0)" xlink:href="#aR"/><use transform="matrix(0.05,0,0,0.05,14,0)" xlink:href="#aS"/><use transform="matrix(0.05,0,0,0.05,19.95,0)" xlink:href="#aT"/><use transform="matrix(0.05,0,0,0.05,29.950000000000003,0)" xlink:href="#aK"/><use transform="matrix(0.05,0,0,0.05,39.95,0)" xlink:href="#aU"/><use transform="matrix(0.05,0,0,0.05,49.95,0)" xlink:href="#aV"/><use transform="matrix(0.05,0,0,0.05,53.900000000000006,0)" xlink:href="#aI"/><use transform="matrix(0.05,0,0,0.05,62.900000000000006,0)" xlink:href="#aK"/><use transform="matrix(0.05,0,0,0.05,72.9,0)" xlink:href="#aW"/><use transform="matrix(0.05,0,0,0.05,77.9,0)" xlink:href="#aV"/><use transform="matrix(0.05,0,0,0.05,81.85000000000001,0)" xlink:href="#aJ"/><use transform="matrix(0.05,0,0,0.05,91.85000000000001,0)" xlink:href="#aU"/></g><path d="M85-194c31 0 48 13 60 33l-1-100h32l1 261h-30c-2-10 0-23-3-31C134-8 116 4 85 4 32 4 16-35 15-94c0-66 23-100 70-100zm9 24c-40 0-46 34-46 75 0 40 6 74 45 74 42 0 51-32 51-76 0-42-9-74-50-73" id="aX"/><path d="M96-169c-40 0-48 33-48 73s9 75 48 75c24 0 41-14 43-38l32 2c-6 37-31 61-74 61-59 0-76-41-82-99-10-93 101-131 147-64 4 7 5 14 7 22l-32 3c-4-21-16-35-41-35" id="aY"/><path d="M84 4C-5 8 30-112 23-190h32v120c0 31 7 50 39 49 72-2 45-101 50-169h31l1 190h-30c-1-10 1-25-2-33-11 22-28 36-60 37" id="aZ"/><path d="M115-194c53 0 69 39 70 98 0 66-23 100-70 100C84 3 66-7 56-30L54 0H23l1-261h32v101c10-23 28-34 59-34zm-8 174c40 0 45-34 45-75 0-40-5-75-45-74-42 0-51 32-51 76 0 43 10 73 51 73" id="ba"/><path d="M106-169C34-169 62-67 57 0H25v-261h32l-1 103c12-21 28-36 61-36 89 0 53 116 60 194h-32v-121c2-32-8-49-39-48" id="bb"/><g id="c"><use transform="matrix(0.05,0,0,0.05,0,0)" xlink:href="#aX"/><use transform="matrix(0.05,0,0,0.05,10,0)" xlink:href="#aY"/><use transform="matrix(0.05,0,0,0.05,19,0)" xlink:href="#aW"/><use transform="matrix(0.05,0,0,0.05,24,0)" xlink:href="#aL"/><use transform="matrix(0.05,0,0,0.05,29,0)" xlink:href="#aO"/><use transform="matrix(0.05,0,0,0.05,39,0)" xlink:href="#aZ"/><use transform="matrix(0.05,0,0,0.05,49,0)" xlink:href="#ba"/><use transform="matrix(0.05,0,0,0.05,59,0)" xlink:href="#aP"/><use transform="matrix(0.05,0,0,0.05,62.95,0)" xlink:href="#aV"/><use transform="matrix(0.05,0,0,0.05,66.9,0)" xlink:href="#aI"/><use transform="matrix(0.05,0,0,0.05,75.9,0)" xlink:href="#bb"/><use transform="matrix(0.05,0,0,0.05,85.9,0)" xlink:href="#aQ"/><use transform="matrix(0.05,0,0,0.05,95.9,0)" xlink:href="#aS"/></g><path d="M26 75v-336h71v23H56V52h41v23H26" id="bc"/><path d="M27 0v-27h64v-190l-56 39v-29l58-41h29v221h61V0H27" id="bd"/><path d="M3 75V52h41v-290H3v-23h71V75H3" id="be"/><g id="d"><use transform="matrix(0.05,0,0,0.05,0,0)" xlink:href="#bc"/><use transform="matrix(0.05,0,0,0.05,5,0)" xlink:href="#bd"/><use transform="matrix(0.05,0,0,0.05,15,0)" xlink:href="#be"/></g><g id="e"><use transform="matrix(0.05,0,0,0.05,0,0)" xlink:href="#aI"/><use transform="matrix(0.05,0,0,0.05,9,0)" xlink:href="#aK"/><use transform="matrix(0.05,0,0,0.05,19,0)" xlink:href="#aN"/><use transform="matrix(0.05,0,0,0.05,33.95,0)" xlink:href="#aL"/><use transform="matrix(0.05,0,0,0.05,38.95,0)" xlink:href="#aI"/><use transform="matrix(0.05,0,0,0.05,47.95,0)" xlink:href="#aK"/><use transform="matrix(0.05,0,0,0.05,57.95,0)" xlink:href="#aN"/><use transform="matrix(0.05,0,0,0.05,72.9,0)" xlink:href="#aO"/><use transform="matrix(0.05,0,0,0.05,82.9,0)" xlink:href="#aP"/><use transform="matrix(0.05,0,0,0.05,86.85000000000001,0)" xlink:href="#aV"/><use transform="matrix(0.05,0,0,0.05,90.80000000000001,0)" xlink:href="#aU"/><use transform="matrix(0.05,0,0,0.05,100.80000000000001,0)" xlink:href="#aT"/></g><path d="M30 0v-248h187v28H63v79h144v27H63v87h162V0H30" id="bf"/><path d="M108 0H70L1-190h34L89-25l56-165h34" id="bg"/><g id="f"><use transform="matrix(0.05,0,0,0.05,0,0)" xlink:href="#bf"/><use transform="matrix(0.05,0,0,0.05,12,0)" xlink:href="#aP"/><use transform="matrix(0.05,0,0,0.05,15.949999999999998,0)" xlink:href="#aQ"/><use transform="matrix(0.05,0,0,0.05,25.950000000000003,0)" xlink:href="#bg"/><use transform="matrix(0.05,0,0,0.05,34.95,0)" xlink:href="#aK"/><use transform="matrix(0.05,0,0,0.05,44.95,0)" xlink:href="#aW"/><use transform="matrix(0.05,0,0,0.05,49.95,0)" xlink:href="#aV"/><use transform="matrix(0.05,0,0,0.05,53.900000000000006,0)" xlink:href="#aJ"/><use transform="matrix(0.05,0,0,0.05,63.900000000000006,0)" xlink:href="#aU"/><use transform="matrix(0.05,0,0,0.05,73.9,0)" xlink:href="#bc"/><use transform="matrix(0.05,0,0,0.05,78.9,0)" xlink:href="#bd"/><use transform="matrix(0.05,0,0,0.05,88.9,0)" xlink:href="#be"/></g><g id="g"><use transform="matrix(0.05,0,0,0.05,0,0)" xlink:href="#bb"/><use transform="matrix(0.05,0,0,0.05,10,0)" xlink:href="#aK"/><use transform="matrix(0.05,0,0,0.05,20,0)" xlink:href="#aI"/></g><g id="h"><use transform="matrix(0.05,0,0,0.05,0,0)" xlink:href="#aW"/><use transform="matrix(0.05,0,0,0.05,5,0)" xlink:href="#aJ"/><use transform="matrix(0.05,0,0,0.05,15,0)" xlink:href="#aO"/></g><path d="M101-251c68 0 85 55 85 127S166 4 100 4C33 4 14-52 14-124c0-73 17-127 87-127zm-1 229c47 0 54-49 54-102s-4-102-53-102c-51 0-55 48-55 102 0 53 5 102 54 102" id="bh"/><path d="M33 0v-38h34V0H33" id="bi"/><g id="i"><use transform="matrix(0.05,0,0,0.05,0,0)" xlink:href="#bc"/><use transform="matrix(0.05,0,0,0.05,5,0)" xlink:href="#bh"/><use transform="matrix(0.05,0,0,0.05,15,0)" xlink:href="#bi"/><use transform="matrix(0.05,0,0,0.05,20,0)" xlink:href="#bi"/><use transform="matrix(0.05,0,0,0.05,25,0)" xlink:href="#bd"/><use transform="matrix(0.05,0,0,0.05,35,0)" xlink:href="#be"/></g><path d="M143 0L79-87 56-68V0H24v-261h32v163l83-92h37l-77 82L181 0h-38" id="bj"/><g id="j"><use transform="matrix(0.05,0,0,0.05,0,0)" xlink:href="#ba"/><use transform="matrix(0.05,0,0,0.05,10,0)" xlink:href="#aP"/><use transform="matrix(0.05,0,0,0.05,13.949999999999998,0)" xlink:href="#aK"/><use transform="matrix(0.05,0,0,0.05,23.95,0)" xlink:href="#aU"/><use transform="matrix(0.05,0,0,0.05,33.95,0)" xlink:href="#bj"/></g><g id="k"><use transform="matrix(0.05,0,0,0.05,0,0)" xlink:href="#aU"/><use transform="matrix(0.05,0,0,0.05,10,0)" xlink:href="#aJ"/><use transform="matrix(0.05,0,0,0.05,20,0)" xlink:href="#aX"/><use transform="matrix(0.05,0,0,0.05,30,0)" xlink:href="#aQ"/></g><g id="l"><use transform="matrix(0.05,0,0,0.05,0,0)" xlink:href="#bb"/><use transform="matrix(0.05,0,0,0.05,10,0)" xlink:href="#aK"/><use transform="matrix(0.05,0,0,0.05,20,0)" xlink:href="#aI"/></g><g id="m"><use transform="matrix(0.05,0,0,0.05,0,0)" xlink:href="#ba"/><use transform="matrix(0.05,0,0,0.05,10,0)" xlink:href="#aK"/><use transform="matrix(0.05,0,0,0.05,20,0)" xlink:href="#aI"/><use transform="matrix(0.05,0,0,0.05,29,0)" xlink:href="#aQ"/></g><g id="n"><use transform="matrix(0.05,0,0,0.05,0,0)" xlink:href="#bc"/><use transform="matrix(0.05,0,0,0.05,5,0)" xlink:href="#bh"/><use transform="matrix(0.05,0,0,0.05,15,0)" xlink:href="#bi"/><use transform="matrix(0.05,0,0,0.05,20,0)" xlink:href="#bi"/><use transform="matrix(0.05,0,0,0.05,25,0)" xlink:href="#bd"/><use transform="matrix(0.05,0,0,0.05,35,0)" xlink:href="#be"/></g><path d="M101-234c-31-9-42 10-38 44h38v23H63V0H32v-167H5v-23h27c-7-52 17-82 69-68v24" id="bk"/><path d="M179-190L93 31C79 59 56 82 12 73V49c39 6 53-20 64-50L1-190h34L92-34l54-156h33" id="bl"/><g id="o"><use transform="matrix(0.05,0,0,0.05,0,0)" xlink:href="#aS"/><use transform="matrix(0.05,0,0,0.05,5.95,0)" xlink:href="#aX"/><use transform="matrix(0.05,0,0,0.05,15.949999999999998,0)" xlink:href="#bk"/><use transform="matrix(0.05,0,0,0.05,20.95,0)" xlink:href="#aL"/><use transform="matrix(0.05,0,0,0.05,25.950000000000003,0)" xlink:href="#aO"/><use transform="matrix(0.05,0,0,0.05,35.95,0)" xlink:href="#aS"/><use transform="matrix(0.05,0,0,0.05,41.900000000000006,0)" xlink:href="#aJ"/><use transform="matrix(0.05,0,0,0.05,51.900000000000006,0)" xlink:href="#aO"/><use transform="matrix(0.05,0,0,0.05,61.900000000000006,0)" xlink:href="#aQ"/><use transform="matrix(0.05,0,0,0.05,71.9,0)" xlink:href="#aS"/><use transform="matrix(0.05,0,0,0.05,77.85000000000001,0)" xlink:href="#aW"/><use transform="matrix(0.05,0,0,0.05,82.85000000000001,0)" xlink:href="#bl"/></g><g id="p"><use transform="matrix(0.05,0,0,0.05,0,0)" xlink:href="#aI"/><use transform="matrix(0.05,0,0,0.05,9,0)" xlink:href="#bj"/><use transform="matrix(0.05,0,0,0.05,18,0)" xlink:href="#aJ"/><use transform="matrix(0.05,0,0,0.05,28,0)" xlink:href="#aI"/><use transform="matrix(0.05,0,0,0.05,37,0)" xlink:href="#aL"/></g><path d="M212-179c-10-28-35-45-73-45-59 0-87 40-87 99 0 60 29 101 89 101 43 0 62-24 78-52l27 14C228-24 195 4 139 4 59 4 22-46 18-125c-6-104 99-153 187-111 19 9 31 26 39 46" id="bm"/><g id="q"><use transform="matrix(0.05,0,0,0.05,0,0)" xlink:href="#bm"/><use transform="matrix(0.05,0,0,0.05,12.950000000000001,0)" xlink:href="#aJ"/><use transform="matrix(0.05,0,0,0.05,22.950000000000003,0)" xlink:href="#aU"/><use transform="matrix(0.05,0,0,0.05,32.95,0)" xlink:href="#aY"/><use transform="matrix(0.05,0,0,0.05,41.95,0)" xlink:href="#aQ"/><use transform="matrix(0.05,0,0,0.05,51.95,0)" xlink:href="#aO"/><use transform="matrix(0.05,0,0,0.05,61.95,0)" xlink:href="#aW"/></g><path fill="#fff" d="M143 4C61 4 22-44 18-125c-5-107 100-154 193-111 17 8 29 25 37 43l-32 9c-13-25-37-40-76-40-61 0-88 39-88 99 0 61 29 100 91 101 35 0 62-11 79-27v-45h-74v-28h105v86C228-13 192 4 143 4" id="bn"/><path fill="#fff" d="M185-189c-5-48-123-54-124 2 14 75 158 14 163 119 3 78-121 87-175 55-17-10-28-26-33-46l33-7c5 56 141 63 141-1 0-78-155-14-162-118-5-82 145-84 179-34 5 7 8 16 11 25" id="bo"/><path fill="#fff" d="M140-251c81 0 123 46 123 126C263-53 228-8 163 1c7 30 30 48 69 40v23c-55 16-95-15-103-61C56-3 17-48 17-125c0-80 42-126 123-126zm0 227c63 0 89-41 89-101s-29-99-89-99c-61 0-89 39-89 99S79-25 140-24" id="bp"/><g id="r"><use transform="matrix(0.05,0,0,0.05,0,0)" xlink:href="#bn"/><use transform="matrix(0.05,0,0,0.05,14,0)" xlink:href="#bo"/><use transform="matrix(0.05,0,0,0.05,26,0)" xlink:href="#bp"/></g><path fill="#fff" d="M212-179c-10-28-35-45-73-45-59 0-87 40-87 99 0 60 29 101 89 101 43 0 62-24 78-52l27 14C228-24 195 4 139 4 59 4 22-46 18-125c-6-104 99-153 187-111 19 9 31 26 39 46" id="bq"/><path fill="#fff" d="M24 0v-261h32V0H24" id="br"/><path fill="#fff" d="M141-36C126-15 110 5 73 4 37 3 15-17 15-53c-1-64 63-63 125-63 3-35-9-54-41-54-24 1-41 7-42 31l-33-3c5-37 33-52 76-52 45 0 72 20 72 64v82c-1 20 7 32 28 27v20c-31 9-61-2-59-35zM48-53c0 20 12 33 32 33 41-3 63-29 60-74-43 2-92-5-92 41" id="bs"/><path fill="#fff" d="M135-143c-3-34-86-38-87 0 15 53 115 12 119 90S17 21 10-45l28-5c4 36 97 45 98 0-10-56-113-15-118-90-4-57 82-63 122-42 12 7 21 19 24 35" id="bt"/><g id="s"><use transform="matrix(0.05,0,0,0.05,0,0)" xlink:href="#bq"/><use transform="matrix(0.05,0,0,0.05,12.950000000000001,0)" xlink:href="#br"/><use transform="matrix(0.05,0,0,0.05,16.900000000000002,0)" xlink:href="#bs"/><use transform="matrix(0.05,0,0,0.05,26.900000000000002,0)" xlink:href="#bt"/><use transform="matrix(0.05,0,0,0.05,35.900000000000006,0)" xlink:href="#bt"/></g><path d="M30-248c118-7 216 8 213 122C240-48 200 0 122 0H30v-248zM63-27c89 8 146-16 146-99s-60-101-146-95v194" id="bu"/><g id="t"><use transform="matrix(0.05,0,0,0.05,0,0)" xlink:href="#bu"/><use transform="matrix(0.05,0,0,0.05,12.950000000000001,0)" xlink:href="#aV"/><use transform="matrix(0.05,0,0,0.05,16.900000000000002,0)" xlink:href="#aK"/><use transform="matrix(0.05,0,0,0.05,26.900000000000002,0)" xlink:href="#aT"/><use transform="matrix(0.05,0,0,0.05,36.900000000000006,0)" xlink:href="#aS"/><use transform="matrix(0.05,0,0,0.05,42.85000000000001,0)" xlink:href="#aK"/><use transform="matrix(0.05,0,0,0.05,52.85,0)" xlink:href="#aN"/><path d="M-.9 1.25h74.6v1.32H-.9z"/></g><g id="u"><use transform="matrix(0.05,0,0,0.05,0,0)" xlink:href="#bf"/><use transform="matrix(0.05,0,0,0.05,12,0)" xlink:href="#aP"/><use transform="matrix(0.05,0,0,0.05,15.949999999999998,0)" xlink:href="#aQ"/><use transform="matrix(0.05,0,0,0.05,25.950000000000003,0)" xlink:href="#aN"/><use transform="matrix(0.05,0,0,0.05,40.9,0)" xlink:href="#aQ"/><use transform="matrix(0.05,0,0,0.05,50.9,0)" xlink:href="#aU"/><use transform="matrix(0.05,0,0,0.05,60.900000000000006,0)" xlink:href="#aW"/><path d="M-.9 1.25h72.7v1.32H-.9z"/></g><path d="M194 0L95-120 63-95V0H30v-248h33v124l119-124h40L117-140 236 0h-42" id="bv"/><g id="v"><use transform="matrix(0.05,0,0,0.05,0,0)" xlink:href="#bv"/><use transform="matrix(0.05,0,0,0.05,12,0)" xlink:href="#aQ"/><use transform="matrix(0.05,0,0,0.05,22,0)" xlink:href="#bl"/><path d="M-.9 1.25h32.8v1.32H-.9z"/></g><path d="M206 0h-36l-40-164L89 0H53L-1-190h32L70-26l43-164h34l41 164 42-164h31" id="bw"/><g id="w"><use transform="matrix(0.05,0,0,0.05,0,0)" xlink:href="#aJ"/><use transform="matrix(0.05,0,0,0.05,10,0)" xlink:href="#bw"/><use transform="matrix(0.05,0,0,0.05,22.950000000000003,0)" xlink:href="#aP"/><use transform="matrix(0.05,0,0,0.05,26.900000000000002,0)" xlink:href="#aL"/><use transform="matrix(0.05,0,0,0.05,31.900000000000002,0)" xlink:href="#bm"/><use transform="matrix(0.05,0,0,0.05,44.85,0)" xlink:href="#aP"/><use transform="matrix(0.05,0,0,0.05,48.800000000000004,0)" xlink:href="#aK"/><use transform="matrix(0.05,0,0,0.05,58.800000000000004,0)" xlink:href="#aI"/><use transform="matrix(0.05,0,0,0.05,67.80000000000001,0)" xlink:href="#aI"/></g><path d="M87 75C49 33 22-17 22-94c0-76 28-126 65-167h31c-38 41-64 92-64 168S80 34 118 75H87" id="bx"/><path d="M16-82v-28h88v28H16" id="by"/><path d="M143 4C61 4 22-44 18-125c-5-107 100-154 193-111 17 8 29 25 37 43l-32 9c-13-25-37-40-76-40-61 0-88 39-88 99 0 61 29 100 91 101 35 0 62-11 79-27v-45h-74v-28h105v86C228-13 192 4 143 4" id="bz"/><path d="M140-251c81 0 123 46 123 126C263-53 228-8 163 1c7 30 30 48 69 40v23c-55 16-95-15-103-61C56-3 17-48 17-125c0-80 42-126 123-126zm0 227c63 0 89-41 89-101s-29-99-89-99c-61 0-89 39-89 99S79-25 140-24" id="bA"/><g id="x"><use transform="matrix(0.05,0,0,0.05,0,0)" xlink:href="#bx"/><use transform="matrix(0.05,0,0,0.05,5.95,0)" xlink:href="#aU"/><use transform="matrix(0.05,0,0,0.05,15.949999999999998,0)" xlink:href="#aJ"/><use transform="matrix(0.05,0,0,0.05,25.950000000000003,0)" xlink:href="#aU"/><use transform="matrix(0.05,0,0,0.05,35.95,0)" xlink:href="#by"/><use transform="matrix(0.05,0,0,0.05,41.900000000000006,0)" xlink:href="#bz"/><use transform="matrix(0.05,0,0,0.05,55.900000000000006,0)" xlink:href="#aM"/><use transform="matrix(0.05,0,0,0.05,67.9,0)" xlink:href="#bA"/></g><path d="M33-261c38 41 65 92 65 168S71 34 33 75H2C39 34 66-17 66-93S39-220 2-261h31" id="bB"/><g id="y"><use transform="matrix(0.05,0,0,0.05,0,0)" xlink:href="#aY"/><use transform="matrix(0.05,0,0,0.05,9,0)" xlink:href="#aP"/><use transform="matrix(0.05,0,0,0.05,12.949999999999998,0)" xlink:href="#aK"/><use transform="matrix(0.05,0,0,0.05,22.95,0)" xlink:href="#aI"/><use transform="matrix(0.05,0,0,0.05,31.950000000000003,0)" xlink:href="#aI"/><use transform="matrix(0.05,0,0,0.05,40.95,0)" xlink:href="#bB"/></g><g id="z"><use transform="matrix(0.05,0,0,0.05,0,0)" xlink:href="#aO"/><use transform="matrix(0.05,0,0,0.05,10,0)" xlink:href="#aS"/><use transform="matrix(0.05,0,0,0.05,15.949999999999998,0)" xlink:href="#aJ"/><use transform="matrix(0.05,0,0,0.05,25.950000000000003,0)" xlink:href="#bg"/><use transform="matrix(0.05,0,0,0.05,34.95,0)" xlink:href="#aL"/></g><path d="M205 0l-28-72H64L36 0H1l101-248h38L239 0h-34zm-38-99l-47-123c-12 45-31 82-46 123h93" id="bC"/><g id="A"><use transform="matrix(0.05,0,0,0.05,0,0)" xlink:href="#bC"/><use transform="matrix(0.05,0,0,0.05,12,0)" xlink:href="#aT"/><use transform="matrix(0.05,0,0,0.05,22,0)" xlink:href="#aQ"/><use transform="matrix(0.05,0,0,0.05,32,0)" xlink:href="#aU"/><use transform="matrix(0.05,0,0,0.05,42,0)" xlink:href="#aW"/></g><g id="B"><use transform="matrix(0.05,0,0,0.05,0,0)" xlink:href="#aX"/><use transform="matrix(0.05,0,0,0.05,10,0)" xlink:href="#aK"/><use transform="matrix(0.05,0,0,0.05,20,0)" xlink:href="#aW"/><use transform="matrix(0.05,0,0,0.05,25,0)" xlink:href="#aK"/></g><path d="M145-31C134-9 116 4 85 4 32 4 16-35 15-94c0-59 17-99 70-100 32-1 48 14 60 33 0-11-1-24 2-32h30l-1 268h-32zM93-21c41 0 51-33 51-76s-8-73-50-73c-40 0-46 35-46 75s5 74 45 74" id="bD"/><g id="C"><use transform="matrix(0.05,0,0,0.05,0,0)" xlink:href="#aK"/><use transform="matrix(0.05,0,0,0.05,10,0)" xlink:href="#aY"/><use transform="matrix(0.05,0,0,0.05,19,0)" xlink:href="#bD"/><use transform="matrix(0.05,0,0,0.05,29,0)" xlink:href="#aZ"/><use transform="matrix(0.05,0,0,0.05,39,0)" xlink:href="#aV"/><use transform="matrix(0.05,0,0,0.05,42.95,0)" xlink:href="#aS"/><use transform="matrix(0.05,0,0,0.05,48.900000000000006,0)" xlink:href="#aQ"/><use transform="matrix(0.05,0,0,0.05,58.900000000000006,0)" xlink:href="#aX"/></g><g id="D"><use transform="matrix(0.05,0,0,0.05,0,0)" xlink:href="#aS"/><use transform="matrix(0.05,0,0,0.05,5.95,0)" xlink:href="#aX"/><use transform="matrix(0.05,0,0,0.05,15.949999999999998,0)" xlink:href="#bk"/><use transform="matrix(0.05,0,0,0.05,20.95,0)" xlink:href="#aI"/><use transform="matrix(0.05,0,0,0.05,29.950000000000003,0)" xlink:href="#aL"/><use transform="matrix(0.05,0,0,0.05,34.95,0)" xlink:href="#aI"/><use transform="matrix(0.05,0,0,0.05,43.95,0)" xlink:href="#aZ"/><use transform="matrix(0.05,0,0,0.05,53.95,0)" xlink:href="#ba"/><use transform="matrix(0.05,0,0,0.05,63.95,0)" xlink:href="#bm"/><use transform="matrix(0.05,0,0,0.05,76.9,0)" xlink:href="#aP"/><use transform="matrix(0.05,0,0,0.05,80.85000000000001,0)" xlink:href="#aK"/><use transform="matrix(0.05,0,0,0.05,90.85000000000001,0)" xlink:href="#aI"/><use transform="matrix(0.05,0,0,0.05,99.85000000000001,0)" xlink:href="#aI"/><use transform="matrix(0.05,0,0,0.05,108.85000000000001,0)" xlink:href="#aR"/><use transform="matrix(0.05,0,0,0.05,122.85000000000001,0)" xlink:href="#bk"/></g><g id="E"><use transform="matrix(0.05,0,0,0.05,0,0)" xlink:href="#aN"/><use transform="matrix(0.05,0,0,0.05,14.950000000000001,0)" xlink:href="#aK"/><use transform="matrix(0.05,0,0,0.05,24.950000000000003,0)" xlink:href="#aW"/><use transform="matrix(0.05,0,0,0.05,29.950000000000003,0)" xlink:href="#aQ"/><use transform="matrix(0.05,0,0,0.05,39.95,0)" xlink:href="#aS"/><use transform="matrix(0.05,0,0,0.05,45.900000000000006,0)" xlink:href="#aV"/><use transform="matrix(0.05,0,0,0.05,49.85000000000001,0)" xlink:href="#aK"/><use transform="matrix(0.05,0,0,0.05,59.85,0)" xlink:href="#aP"/></g><g id="F"><use transform="matrix(0.05,0,0,0.05,0,0)" xlink:href="#aW"/><use transform="matrix(0.05,0,0,0.05,5,0)" xlink:href="#bl"/><use transform="matrix(0.05,0,0,0.05,14,0)" xlink:href="#aO"/><use transform="matrix(0.05,0,0,0.05,24,0)" xlink:href="#aQ"/></g><g id="G"><use transform="matrix(0.05,0,0,0.05,0,0)" xlink:href="#aM"/><use transform="matrix(0.05,0,0,0.05,12,0)" xlink:href="#aK"/><use transform="matrix(0.05,0,0,0.05,22,0)" xlink:href="#aN"/><use transform="matrix(0.05,0,0,0.05,36.95,0)" xlink:href="#aO"/><use transform="matrix(0.05,0,0,0.05,46.95,0)" xlink:href="#aP"/><use transform="matrix(0.05,0,0,0.05,50.900000000000006,0)" xlink:href="#aV"/><use transform="matrix(0.05,0,0,0.05,54.85,0)" xlink:href="#aU"/><use transform="matrix(0.05,0,0,0.05,64.85000000000001,0)" xlink:href="#aT"/></g><path d="M240 0l2-218c-23 76-54 145-80 218h-23L58-218 59 0H30v-248h44l77 211c21-75 51-140 76-211h43V0h-30" id="bE"/><g id="H"><use transform="matrix(0.05,0,0,0.05,0,0)" xlink:href="#bE"/><use transform="matrix(0.05,0,0,0.05,14.950000000000001,0)" xlink:href="#aQ"/><use transform="matrix(0.05,0,0,0.05,24.950000000000003,0)" xlink:href="#aW"/><use transform="matrix(0.05,0,0,0.05,29.950000000000003,0)" xlink:href="#bb"/><use transform="matrix(0.05,0,0,0.05,39.95,0)" xlink:href="#aJ"/><use transform="matrix(0.05,0,0,0.05,49.95,0)" xlink:href="#aX"/></g><g id="I"><use transform="matrix(0.05,0,0,0.05,0,0)" xlink:href="#aM"/><use transform="matrix(0.05,0,0,0.05,12,0)" xlink:href="#aK"/><use transform="matrix(0.05,0,0,0.05,22,0)" xlink:href="#aN"/><use transform="matrix(0.05,0,0,0.05,36.95,0)" xlink:href="#aO"/><use transform="matrix(0.05,0,0,0.05,46.95,0)" xlink:href="#aP"/><use transform="matrix(0.05,0,0,0.05,50.900000000000006,0)" xlink:href="#aQ"/></g><path d="M127-220V0H93v-220H8v-28h204v28h-85" id="bF"/><g id="J"><use transform="matrix(0.05,0,0,0.05,0,0)" xlink:href="#bF"/><use transform="matrix(0.05,0,0,0.05,9.950000000000001,0)" xlink:href="#bl"/><use transform="matrix(0.05,0,0,0.05,18.950000000000003,0)" xlink:href="#aO"/><use transform="matrix(0.05,0,0,0.05,28.950000000000003,0)" xlink:href="#aQ"/></g><g id="K"><use transform="matrix(0.05,0,0,0.05,0,0)" xlink:href="#aN"/><use transform="matrix(0.05,0,0,0.05,14.950000000000001,0)" xlink:href="#aQ"/><use transform="matrix(0.05,0,0,0.05,24.950000000000003,0)" xlink:href="#aW"/><use transform="matrix(0.05,0,0,0.05,29.950000000000003,0)" xlink:href="#bb"/><use transform="matrix(0.05,0,0,0.05,39.95,0)" xlink:href="#aJ"/><use transform="matrix(0.05,0,0,0.05,49.95,0)" xlink:href="#aX"/></g><g id="L"><use transform="matrix(0.05,0,0,0.05,0,0)" xlink:href="#bE"/><use transform="matrix(0.05,0,0,0.05,14.950000000000001,0)" xlink:href="#aK"/><use transform="matrix(0.05,0,0,0.05,24.950000000000003,0)" xlink:href="#aW"/><use transform="matrix(0.05,0,0,0.05,29.950000000000003,0)" xlink:href="#aQ"/><use transform="matrix(0.05,0,0,0.05,39.95,0)" xlink:href="#aS"/><use transform="matrix(0.05,0,0,0.05,45.900000000000006,0)" xlink:href="#aV"/><use transform="matrix(0.05,0,0,0.05,49.85000000000001,0)" xlink:href="#aK"/><use transform="matrix(0.05,0,0,0.05,59.85,0)" xlink:href="#aP"/></g><g id="M"><use transform="matrix(0.05,0,0,0.05,0,0)" xlink:href="#aI"/><use transform="matrix(0.05,0,0,0.05,9,0)" xlink:href="#aK"/><use transform="matrix(0.05,0,0,0.05,19,0)" xlink:href="#aN"/><use transform="matrix(0.05,0,0,0.05,33.95,0)" xlink:href="#aO"/><use transform="matrix(0.05,0,0,0.05,43.95,0)" xlink:href="#aP"/><use transform="matrix(0.05,0,0,0.05,47.900000000000006,0)" xlink:href="#aQ"/></g><g id="N"><use transform="matrix(0.05,0,0,0.05,0,0)" xlink:href="#aT"/><use transform="matrix(0.05,0,0,0.05,10,0)" xlink:href="#aQ"/><use transform="matrix(0.05,0,0,0.05,20,0)" xlink:href="#aJ"/><use transform="matrix(0.05,0,0,0.05,30,0)" xlink:href="#aL"/></g><g id="O"><use transform="matrix(0.05,0,0,0.05,0,0)" xlink:href="#bb"/><use transform="matrix(0.05,0,0,0.05,10,0)" xlink:href="#aK"/><use transform="matrix(0.05,0,0,0.05,20,0)" xlink:href="#aI"/><use transform="matrix(0.05,0,0,0.05,29,0)" xlink:href="#bz"/><use transform="matrix(0.05,0,0,0.05,43,0)" xlink:href="#aQ"/><use transform="matrix(0.05,0,0,0.05,53,0)" xlink:href="#aJ"/><use transform="matrix(0.05,0,0,0.05,63,0)" xlink:href="#aN"/><use transform="matrix(0.05,0,0,0.05,77.95,0)" xlink:href="#aQ"/><use transform="matrix(0.05,0,0,0.05,87.95,0)" xlink:href="#aW"/><use transform="matrix(0.05,0,0,0.05,92.95,0)" xlink:href="#aS"/><use transform="matrix(0.05,0,0,0.05,98.9,0)" xlink:href="#bl"/></g><path d="M80-196l47-18 7 23-49 13 32 44-20 13-27-46-27 45-21-12 33-44-49-13 8-23 47 19-2-53h23" id="bG"/><g id="P"><use transform="matrix(0.05,0,0,0.05,0,0)" xlink:href="#bc"/><use transform="matrix(0.05,0,0,0.05,5,0)" xlink:href="#bh"/><use transform="matrix(0.05,0,0,0.05,15,0)" xlink:href="#bi"/><use transform="matrix(0.05,0,0,0.05,20,0)" xlink:href="#bi"/><use transform="matrix(0.05,0,0,0.05,25,0)" xlink:href="#bG"/><use transform="matrix(0.05,0,0,0.05,32,0)" xlink:href="#be"/></g><g id="Q"><use transform="matrix(0.05,0,0,0.05,0,0)" xlink:href="#bz"/><use transform="matrix(0.05,0,0,0.05,14,0)" xlink:href="#aQ"/><use transform="matrix(0.05,0,0,0.05,24,0)" xlink:href="#aJ"/><use transform="matrix(0.05,0,0,0.05,34,0)" xlink:href="#aN"/><use transform="matrix(0.05,0,0,0.05,48.95,0)" xlink:href="#aQ"/><use transform="matrix(0.05,0,0,0.05,58.95,0)" xlink:href="#aW"/><use transform="matrix(0.05,0,0,0.05,63.95,0)" xlink:href="#aS"/><use transform="matrix(0.05,0,0,0.05,69.9,0)" xlink:href="#bl"/></g><g id="R"><use transform="matrix(0.05,0,0,0.05,0,0)" xlink:href="#aI"/><use transform="matrix(0.05,0,0,0.05,9,0)" xlink:href="#aK"/><use transform="matrix(0.05,0,0,0.05,19,0)" xlink:href="#aN"/><use transform="matrix(0.05,0,0,0.05,33.95,0)" xlink:href="#aL"/></g><g id="S"><use transform="matrix(0.05,0,0,0.05,0,0)" xlink:href="#bf"/><use transform="matrix(0.05,0,0,0.05,12,0)" xlink:href="#aP"/><use transform="matrix(0.05,0,0,0.05,15.949999999999998,0)" xlink:href="#aQ"/><use transform="matrix(0.05,0,0,0.05,25.950000000000003,0)" xlink:href="#bg"/><use transform="matrix(0.05,0,0,0.05,34.95,0)" xlink:href="#aK"/><use transform="matrix(0.05,0,0,0.05,44.95,0)" xlink:href="#aW"/><use transform="matrix(0.05,0,0,0.05,49.95,0)" xlink:href="#aV"/><use transform="matrix(0.05,0,0,0.05,53.900000000000006,0)" xlink:href="#aJ"/><use transform="matrix(0.05,0,0,0.05,63.900000000000006,0)" xlink:href="#aU"/></g><g id="T"><use transform="matrix(0.05,0,0,0.05,0,0)" xlink:href="#aX"/><use transform="matrix(0.05,0,0,0.05,10,0)" xlink:href="#aY"/><use transform="matrix(0.05,0,0,0.05,19,0)" xlink:href="#aW"/><use transform="matrix(0.05,0,0,0.05,24,0)" xlink:href="#aL"/><use transform="matrix(0.05,0,0,0.05,29,0)" xlink:href="#aY"/><use transform="matrix(0.05,0,0,0.05,38,0)" xlink:href="#aJ"/><use transform="matrix(0.05,0,0,0.05,48,0)" xlink:href="#bg"/><use transform="matrix(0.05,0,0,0.05,57,0)" xlink:href="#aQ"/><use transform="matrix(0.05,0,0,0.05,67,0)" xlink:href="#aS"/><use transform="matrix(0.05,0,0,0.05,72.95,0)" xlink:href="#aK"/><use transform="matrix(0.05,0,0,0.05,82.95,0)" xlink:href="#aT"/><use transform="matrix(0.05,0,0,0.05,92.95,0)" xlink:href="#aQ"/></g><path d="M30 0v-248h33v221h125V0H30" id="bH"/><g id="U"><use transform="matrix(0.05,0,0,0.05,0,0)" xlink:href="#bH"/><use transform="matrix(0.05,0,0,0.05,10,0)" xlink:href="#aV"/><use transform="matrix(0.05,0,0,0.05,13.949999999999998,0)" xlink:href="#aW"/><use transform="matrix(0.05,0,0,0.05,18.95,0)" xlink:href="#bb"/><use transform="matrix(0.05,0,0,0.05,28.950000000000003,0)" xlink:href="#aJ"/><use transform="matrix(0.05,0,0,0.05,38.95,0)" xlink:href="#aP"/><use transform="matrix(0.05,0,0,0.05,42.900000000000006,0)" xlink:href="#aJ"/><use transform="matrix(0.05,0,0,0.05,52.900000000000006,0)" xlink:href="#aT"/><use transform="matrix(0.05,0,0,0.05,62.900000000000006,0)" xlink:href="#bl"/></g><g id="V"><use transform="matrix(0.05,0,0,0.05,0,0)" xlink:href="#aP"/><use transform="matrix(0.05,0,0,0.05,3.95,0)" xlink:href="#aV"/><use transform="matrix(0.05,0,0,0.05,7.9,0)" xlink:href="#aW"/><use transform="matrix(0.05,0,0,0.05,12.9,0)" xlink:href="#bb"/><use transform="matrix(0.05,0,0,0.05,22.9,0)" xlink:href="#aJ"/><use transform="matrix(0.05,0,0,0.05,32.9,0)" xlink:href="#aP"/><use transform="matrix(0.05,0,0,0.05,36.85,0)" xlink:href="#aJ"/><use transform="matrix(0.05,0,0,0.05,46.85,0)" xlink:href="#aT"/><use transform="matrix(0.05,0,0,0.05,56.85,0)" xlink:href="#bl"/></g><path fill="#fff" d="M177-190C167-65 218 103 67 71c-23-6-38-20-44-43l32-5c15 47 100 32 89-28v-30C133-14 115 1 83 1 29 1 15-40 15-95c0-56 16-97 71-98 29-1 48 16 59 35 1-10 0-23 2-32h30zM94-22c36 0 50-32 50-73 0-42-14-75-50-75-39 0-46 34-46 75s6 73 46 73" id="bI"/><path fill="#fff" d="M145-31C134-9 116 4 85 4 32 4 16-35 15-94c0-59 17-99 70-100 32-1 48 14 60 33 0-11-1-24 2-32h30l-1 268h-32zM93-21c41 0 51-33 51-76s-8-73-50-73c-40 0-46 35-46 75s5 74 45 74" id="bJ"/><path fill="#fff" d="M33-154v-36h34v36H33zM33 0v-36h34V0H33" id="bK"/><g id="W"><use transform="matrix(0.05,0,0,0.05,0,0)" xlink:href="#bI"/><use transform="matrix(0.05,0,0,0.05,10,0)" xlink:href="#bt"/><use transform="matrix(0.05,0,0,0.05,19,0)" xlink:href="#bJ"/><use transform="matrix(0.05,0,0,0.05,29,0)" xlink:href="#bt"/><use transform="matrix(0.05,0,0,0.05,38,0)" xlink:href="#bK"/></g><path fill="#fff" d="M137 0h-34L2-248h35l83 218 83-218h36" id="bL"/><path fill="#fff" d="M100-194c63 0 86 42 84 106H49c0 40 14 67 53 68 26 1 43-12 49-29l28 8c-11 28-37 45-77 45C44 4 14-33 15-96c1-61 26-98 85-98zm52 81c6-60-76-77-97-28-3 7-6 17-6 28h103" id="bM"/><path fill="#fff" d="M114-163C36-179 61-72 57 0H25l-1-190h30c1 12-1 29 2 39 6-27 23-49 58-41v29" id="bN"/><path fill="#fff" d="M59-47c-2 24 18 29 38 22v24C64 9 27 4 27-40v-127H5v-23h24l9-43h21v43h35v23H59v120" id="bO"/><path fill="#fff" d="M24-231v-30h32v30H24zM24 0v-190h32V0H24" id="bP"/><path fill="#fff" d="M96-169c-40 0-48 33-48 73s9 75 48 75c24 0 41-14 43-38l32 2c-6 37-31 61-74 61-59 0-76-41-82-99-10-93 101-131 147-64 4 7 5 14 7 22l-32 3c-4-21-16-35-41-35" id="bQ"/><path fill="#fff" d="M30-248c118-7 216 8 213 122C240-48 200 0 122 0H30v-248zM63-27c89 8 146-16 146-99s-60-101-146-95v194" id="bR"/><path fill="#fff" d="M84 4C-5 8 30-112 23-190h32v120c0 31 7 50 39 49 72-2 45-101 50-169h31l1 190h-30c-1-10 1-25-2-33-11 22-28 36-60 37" id="bS"/><path fill="#fff" d="M210-169c-67 3-38 105-44 169h-31v-121c0-29-5-50-35-48C34-165 62-65 56 0H25l-1-190h30c1 10-1 24 2 32 10-44 99-50 107 0 11-21 27-35 58-36 85-2 47 119 55 194h-31v-121c0-29-5-49-35-48" id="bT"/><g id="X"><use transform="matrix(0.05,0,0,0.05,0,0)" xlink:href="#bL"/><use transform="matrix(0.05,0,0,0.05,11,0)" xlink:href="#bM"/><use transform="matrix(0.05,0,0,0.05,21,0)" xlink:href="#bN"/><use transform="matrix(0.05,0,0,0.05,26.950000000000003,0)" xlink:href="#bO"/><use transform="matrix(0.05,0,0,0.05,31.950000000000003,0)" xlink:href="#bP"/><use transform="matrix(0.05,0,0,0.05,35.9,0)" xlink:href="#bQ"/><use transform="matrix(0.05,0,0,0.05,44.9,0)" xlink:href="#bs"/><use transform="matrix(0.05,0,0,0.05,54.900000000000006,0)" xlink:href="#br"/><use transform="matrix(0.05,0,0,0.05,58.85,0)" xlink:href="#bR"/><use transform="matrix(0.05,0,0,0.05,71.8,0)" xlink:href="#bs"/><use transform="matrix(0.05,0,0,0.05,81.8,0)" xlink:href="#bO"/><use transform="matrix(0.05,0,0,0.05,86.8,0)" xlink:href="#bS"/><use transform="matrix(0.05,0,0,0.05,96.8,0)" xlink:href="#bT"/></g><g id="Y"><use transform="matrix(0.04938271604938272,0,0,0.04938271604938272,0,0)" xlink:href="#bC"/><use transform="matrix(0.04938271604938272,0,0,0.04938271604938272,11.851851851851853,0)" xlink:href="#aZ"/><use transform="matrix(0.04938271604938272,0,0,0.04938271604938272,21.7283950617284,0)" xlink:href="#aI"/><use transform="matrix(0.04938271604938272,0,0,0.04938271604938272,30.617283950617285,0)" xlink:href="#aW"/><use transform="matrix(0.04938271604938272,0,0,0.04938271604938272,35.55555555555556,0)" xlink:href="#aS"/><use transform="matrix(0.04938271604938272,0,0,0.04938271604938272,41.4320987654321,0)" xlink:href="#aK"/><use transform="matrix(0.04938271604938272,0,0,0.04938271604938272,51.308641975308646,0)" xlink:href="#aP"/><use transform="matrix(0.04938271604938272,0,0,0.04938271604938272,55.20987654320988,0)" xlink:href="#aV"/><use transform="matrix(0.04938271604938272,0,0,0.04938271604938272,59.111111111111114,0)" xlink:href="#aK"/><use transform="matrix(0.04938271604938272,0,0,0.04938271604938272,68.98765432098766,0)" xlink:href="#aU"/></g><path d="M197 0v-115H63V0H30v-248h33v105h134v-105h34V0h-34" id="bU"/><g id="Z"><use transform="matrix(0.04938271604938272,0,0,0.04938271604938272,0,0)" xlink:href="#bU"/><use transform="matrix(0.04938271604938272,0,0,0.04938271604938272,12.790123456790125,0)" xlink:href="#aQ"/><use transform="matrix(0.04938271604938272,0,0,0.04938271604938272,22.66666666666667,0)" xlink:href="#aV"/><use transform="matrix(0.04938271604938272,0,0,0.04938271604938272,26.567901234567902,0)" xlink:href="#aT"/><use transform="matrix(0.04938271604938272,0,0,0.04938271604938272,36.44444444444445,0)" xlink:href="#bb"/><use transform="matrix(0.04938271604938272,0,0,0.04938271604938272,46.320987654320994,0)" xlink:href="#aW"/></g><g id="aa"><use transform="matrix(0.04938271604938272,0,0,0.04938271604938272,0,0)" xlink:href="#bu"/><use transform="matrix(0.04938271604938272,0,0,0.04938271604938272,12.790123456790125,0)" xlink:href="#aK"/><use transform="matrix(0.04938271604938272,0,0,0.04938271604938272,22.66666666666667,0)" xlink:href="#aW"/><use transform="matrix(0.04938271604938272,0,0,0.04938271604938272,27.604938271604947,0)" xlink:href="#aZ"/><use transform="matrix(0.04938271604938272,0,0,0.04938271604938272,37.48148148148149,0)" xlink:href="#aN"/></g><g id="ab"><use transform="matrix(0.05,0,0,0.05,0,0)" xlink:href="#aS"/><use transform="matrix(0.05,0,0,0.05,5.95,0)" xlink:href="#aX"/><use transform="matrix(0.05,0,0,0.05,15.949999999999998,0)" xlink:href="#bk"/><use transform="matrix(0.05,0,0,0.05,20.95,0)" xlink:href="#aL"/><use transform="matrix(0.05,0,0,0.05,25.950000000000003,0)" xlink:href="#aW"/><use transform="matrix(0.05,0,0,0.05,30.950000000000003,0)" xlink:href="#bl"/><use transform="matrix(0.05,0,0,0.05,39.95,0)" xlink:href="#aO"/><use transform="matrix(0.05,0,0,0.05,49.95,0)" xlink:href="#aQ"/></g><g id="ac"><use transform="matrix(0.05,0,0,0.05,0,0)" xlink:href="#bD"/><use transform="matrix(0.05,0,0,0.05,10,0)" xlink:href="#aZ"/><use transform="matrix(0.05,0,0,0.05,20,0)" xlink:href="#aX"/><use transform="matrix(0.05,0,0,0.05,30,0)" xlink:href="#aW"/><use transform="matrix(0.05,0,0,0.05,35,0)" xlink:href="#aL"/></g><path d="M232-93c-1 65-40 97-104 97C67 4 28-28 28-90v-158h33c8 89-33 224 67 224 102 0 64-133 71-224h33v155" id="bV"/><g id="ad"><use transform="matrix(0.05,0,0,0.05,0,0)" xlink:href="#bV"/><use transform="matrix(0.05,0,0,0.05,12.950000000000001,0)" xlink:href="#aU"/><use transform="matrix(0.05,0,0,0.05,22.950000000000003,0)" xlink:href="#aV"/><use transform="matrix(0.05,0,0,0.05,26.900000000000002,0)" xlink:href="#aW"/></g><g id="ae"><use transform="matrix(0.05,0,0,0.05,0,0)" xlink:href="#aI"/><use transform="matrix(0.05,0,0,0.05,9,0)" xlink:href="#aK"/><use transform="matrix(0.05,0,0,0.05,19,0)" xlink:href="#aN"/><use transform="matrix(0.05,0,0,0.05,33.95,0)" xlink:href="#aL"/><use transform="matrix(0.05,0,0,0.05,38.95,0)" xlink:href="#bg"/><use transform="matrix(0.05,0,0,0.05,47.95,0)" xlink:href="#aQ"/><use transform="matrix(0.05,0,0,0.05,57.95,0)" xlink:href="#aS"/><use transform="matrix(0.05,0,0,0.05,63.900000000000006,0)" xlink:href="#aW"/><use transform="matrix(0.05,0,0,0.05,68.9,0)" xlink:href="#aV"/><use transform="matrix(0.05,0,0,0.05,72.85000000000001,0)" xlink:href="#aY"/><use transform="matrix(0.05,0,0,0.05,81.85000000000001,0)" xlink:href="#aK"/><use transform="matrix(0.05,0,0,0.05,91.85000000000001,0)" xlink:href="#aP"/><use transform="matrix(0.05,0,0,0.05,95.80000000000001,0)" xlink:href="#bu"/><use transform="matrix(0.05,0,0,0.05,108.75,0)" xlink:href="#aK"/><use transform="matrix(0.05,0,0,0.05,118.75,0)" xlink:href="#aW"/><use transform="matrix(0.05,0,0,0.05,123.75,0)" xlink:href="#aZ"/><use transform="matrix(0.05,0,0,0.05,133.75,0)" xlink:href="#aN"/></g><path d="M141 0L90-78 38 0H4l68-98-65-92h35l48 74 47-74h35l-64 92 68 98h-35" id="bW"/><g id="af"><use transform="matrix(0.05,0,0,0.05,0,0)" xlink:href="#bW"/><use transform="matrix(0.05,0,0,0.05,9,0)" xlink:href="#aI"/><use transform="matrix(0.05,0,0,0.05,18,0)" xlink:href="#aX"/><use transform="matrix(0.05,0,0,0.05,28,0)" xlink:href="#aL"/><use transform="matrix(0.05,0,0,0.05,33,0)" xlink:href="#aX"/><use transform="matrix(0.05,0,0,0.05,43,0)" xlink:href="#aQ"/><use transform="matrix(0.05,0,0,0.05,53,0)" xlink:href="#aY"/><use transform="matrix(0.05,0,0,0.05,62,0)" xlink:href="#aV"/><use transform="matrix(0.05,0,0,0.05,65.95,0)" xlink:href="#aN"/><use transform="matrix(0.05,0,0,0.05,80.9,0)" xlink:href="#aK"/><use transform="matrix(0.05,0,0,0.05,90.9,0)" xlink:href="#aP"/></g><path d="M137 0h-34L2-248h35l83 218 83-218h36" id="bX"/><g id="ag"><use transform="matrix(0.05,0,0,0.05,0,0)" xlink:href="#bD"/><use transform="matrix(0.05,0,0,0.05,10,0)" xlink:href="#aZ"/><use transform="matrix(0.05,0,0,0.05,20,0)" xlink:href="#aX"/><use transform="matrix(0.05,0,0,0.05,30,0)" xlink:href="#aW"/><use transform="matrix(0.05,0,0,0.05,35,0)" xlink:href="#aL"/><use transform="matrix(0.05,0,0,0.05,40,0)" xlink:href="#aU"/><use transform="matrix(0.05,0,0,0.05,50,0)" xlink:href="#aZ"/><use transform="matrix(0.05,0,0,0.05,60,0)" xlink:href="#aN"/><use transform="matrix(0.05,0,0,0.05,74.95,0)" xlink:href="#aQ"/><use transform="matrix(0.05,0,0,0.05,84.95,0)" xlink:href="#aS"/><use transform="matrix(0.05,0,0,0.05,90.9,0)" xlink:href="#aV"/><use transform="matrix(0.05,0,0,0.05,94.85000000000001,0)" xlink:href="#aY"/><use transform="matrix(0.05,0,0,0.05,103.85000000000001,0)" xlink:href="#bX"/><use transform="matrix(0.05,0,0,0.05,114.5,0)" xlink:href="#aK"/><use transform="matrix(0.05,0,0,0.05,124.5,0)" xlink:href="#aP"/><use transform="matrix(0.05,0,0,0.05,128.45000000000002,0)" xlink:href="#aZ"/><use transform="matrix(0.05,0,0,0.05,138.45000000000002,0)" xlink:href="#aQ"/></g><g id="ah"><use transform="matrix(0.05,0,0,0.05,0,0)" xlink:href="#bc"/><use transform="matrix(0.05,0,0,0.05,5,0)" xlink:href="#bd"/><use transform="matrix(0.05,0,0,0.05,15,0)" xlink:href="#be"/></g><g id="ai"><use transform="matrix(0.05,0,0,0.05,0,0)" xlink:href="#bD"/><use transform="matrix(0.05,0,0,0.05,10,0)" xlink:href="#aZ"/><use transform="matrix(0.05,0,0,0.05,20,0)" xlink:href="#aX"/><use transform="matrix(0.05,0,0,0.05,30,0)" xlink:href="#aW"/><use transform="matrix(0.05,0,0,0.05,35,0)" xlink:href="#aL"/><use transform="matrix(0.05,0,0,0.05,40,0)" xlink:href="#aZ"/><use transform="matrix(0.05,0,0,0.05,50,0)" xlink:href="#aU"/><use transform="matrix(0.05,0,0,0.05,60,0)" xlink:href="#aV"/><use transform="matrix(0.05,0,0,0.05,63.95,0)" xlink:href="#aW"/></g><g id="aj"><use transform="matrix(0.05,0,0,0.05,0,0)" xlink:href="#bW"/><use transform="matrix(0.05,0,0,0.05,9,0)" xlink:href="#aI"/><use transform="matrix(0.05,0,0,0.05,18,0)" xlink:href="#aX"/><use transform="matrix(0.05,0,0,0.05,28,0)" xlink:href="#aL"/><use transform="matrix(0.05,0,0,0.05,33,0)" xlink:href="#aX"/><use transform="matrix(0.05,0,0,0.05,43,0)" xlink:href="#aK"/><use transform="matrix(0.05,0,0,0.05,53,0)" xlink:href="#aW"/><use transform="matrix(0.05,0,0,0.05,58,0)" xlink:href="#aQ"/></g><g id="ak"><use transform="matrix(0.05,0,0,0.05,0,0)" xlink:href="#aI"/><use transform="matrix(0.05,0,0,0.05,9,0)" xlink:href="#aK"/><use transform="matrix(0.05,0,0,0.05,19,0)" xlink:href="#aN"/><use transform="matrix(0.05,0,0,0.05,33.95,0)" xlink:href="#aL"/><use transform="matrix(0.05,0,0,0.05,38.95,0)" xlink:href="#aY"/><use transform="matrix(0.05,0,0,0.05,47.95,0)" xlink:href="#aZ"/><use transform="matrix(0.05,0,0,0.05,57.95,0)" xlink:href="#aS"/><use transform="matrix(0.05,0,0,0.05,63.900000000000006,0)" xlink:href="#aS"/><use transform="matrix(0.05,0,0,0.05,69.85000000000001,0)" xlink:href="#aQ"/><use transform="matrix(0.05,0,0,0.05,79.85000000000001,0)" xlink:href="#aU"/><use transform="matrix(0.05,0,0,0.05,89.85000000000001,0)" xlink:href="#aW"/></g><g id="al"><use transform="matrix(0.05,0,0,0.05,0,0)" xlink:href="#bH"/><use transform="matrix(0.05,0,0,0.05,10,0)" xlink:href="#aJ"/><use transform="matrix(0.05,0,0,0.05,20,0)" xlink:href="#aY"/><use transform="matrix(0.05,0,0,0.05,29,0)" xlink:href="#aK"/><use transform="matrix(0.05,0,0,0.05,39,0)" xlink:href="#aW"/><use transform="matrix(0.05,0,0,0.05,44,0)" xlink:href="#aV"/><use transform="matrix(0.05,0,0,0.05,47.95,0)" xlink:href="#aJ"/><use transform="matrix(0.05,0,0,0.05,57.95,0)" xlink:href="#aU"/></g><g id="am"><use transform="matrix(0.05,0,0,0.05,0,0)" xlink:href="#bW"/><use transform="matrix(0.05,0,0,0.05,9,0)" xlink:href="#aI"/><use transform="matrix(0.05,0,0,0.05,18,0)" xlink:href="#aX"/><use transform="matrix(0.05,0,0,0.05,28,0)" xlink:href="#aL"/><use transform="matrix(0.05,0,0,0.05,33,0)" xlink:href="#aI"/><use transform="matrix(0.05,0,0,0.05,42,0)" xlink:href="#aW"/><use transform="matrix(0.05,0,0,0.05,47,0)" xlink:href="#aS"/><use transform="matrix(0.05,0,0,0.05,52.95,0)" xlink:href="#aV"/><use transform="matrix(0.05,0,0,0.05,56.900000000000006,0)" xlink:href="#aU"/><use transform="matrix(0.05,0,0,0.05,66.9,0)" xlink:href="#aT"/></g><g id="an"><use transform="matrix(0.05,0,0,0.05,0,0)" xlink:href="#aX"/><use transform="matrix(0.05,0,0,0.05,10,0)" xlink:href="#aY"/><use transform="matrix(0.05,0,0,0.05,19,0)" xlink:href="#aW"/><use transform="matrix(0.05,0,0,0.05,24,0)" xlink:href="#aL"/><use transform="matrix(0.05,0,0,0.05,29,0)" xlink:href="#aK"/><use transform="matrix(0.05,0,0,0.05,39,0)" xlink:href="#aY"/><use transform="matrix(0.05,0,0,0.05,48,0)" xlink:href="#aY"/><use transform="matrix(0.05,0,0,0.05,57,0)" xlink:href="#aQ"/><use transform="matrix(0.05,0,0,0.05,67,0)" xlink:href="#aI"/><use transform="matrix(0.05,0,0,0.05,76,0)" xlink:href="#aI"/></g><path d="M233-177c-1 41-23 64-60 70L243 0h-38l-65-103H63V0H30v-248c88 3 205-21 203 71zM63-129c60-2 137 13 137-47 0-61-80-42-137-45v92" id="bY"/><g id="ao"><use transform="matrix(0.05,0,0,0.05,0,0)" xlink:href="#bY"/><use transform="matrix(0.05,0,0,0.05,12.950000000000001,0)" xlink:href="#aV"/><use transform="matrix(0.05,0,0,0.05,16.900000000000002,0)" xlink:href="#aT"/><use transform="matrix(0.05,0,0,0.05,26.900000000000002,0)" xlink:href="#bb"/><use transform="matrix(0.05,0,0,0.05,36.900000000000006,0)" xlink:href="#aW"/><use transform="matrix(0.05,0,0,0.05,41.900000000000006,0)" xlink:href="#aI"/></g><path d="M110-160c48 1 74 30 74 79 0 53-28 85-80 85-65 0-83-55-86-122-5-90 50-162 133-122 14 7 22 21 27 39l-31 6c-5-40-67-38-82-6-9 19-15 44-15 74 11-20 30-34 60-33zm-7 138c34 0 49-23 49-58s-16-56-50-56c-29 0-50 16-49 49 1 36 15 65 50 65" id="bZ"/><g id="ap"><use transform="matrix(0.04938271604938272,0,0,0.04938271604938272,0,0)" xlink:href="#aX"/><use transform="matrix(0.04938271604938272,0,0,0.04938271604938272,9.876543209876544,0)" xlink:href="#aY"/><use transform="matrix(0.04938271604938272,0,0,0.04938271604938272,18.765432098765434,0)" xlink:href="#aW"/><use transform="matrix(0.04938271604938272,0,0,0.04938271604938272,23.703703703703706,0)" xlink:href="#aL"/><use transform="matrix(0.04938271604938272,0,0,0.04938271604938272,28.641975308641978,0)" xlink:href="#aI"/><use transform="matrix(0.04938271604938272,0,0,0.04938271604938272,37.53086419753087,0)" xlink:href="#bd"/><use transform="matrix(0.04938271604938272,0,0,0.04938271604938272,47.40740740740741,0)" xlink:href="#bZ"/><use transform="matrix(0.04938271604938272,0,0,0.04938271604938272,57.283950617283956,0)" xlink:href="#bZ"/></g><path d="M14 0l48-248h34L48 0H14" id="ca"/><path d="M194-120c59 52 2 134-86 124-53-6-90-18-98-63l31-7c8 30 29 43 70 43 46 0 84-17 71-62-32-43-135-20-137-98-3-89 178-90 191-16l-30 9c-8-48-127-53-127 5 0 53 81 35 115 65" id="cb"/><path d="M20-101c0-91 52-143 145-150 126-9 127 168 53 223-23 17-55 32-93 32C57 4 20-33 20-101zm216-33c5-57-18-91-73-90-77 1-110 51-110 125 0 49 23 75 73 75 72-1 104-45 110-110" id="cc"/><g id="aq"><use transform="matrix(0.04938271604938272,0,0,0.04938271604938272,0,0)" xlink:href="#ca"/><use transform="matrix(0.04938271604938272,0,0,0.04938271604938272,4.938271604938272,0)" xlink:href="#cb"/><use transform="matrix(0.04938271604938272,0,0,0.04938271604938272,16.790123456790127,0)" xlink:href="#cc"/></g><path d="M148-71c0-36-31-44-71-41l5-28c46 3 81-6 81-50 0-23-15-35-39-35-30 0-49 17-56 41l-32-3c12-39 42-63 90-64 43 0 69 19 71 60 1 43-30 58-65 66 27 5 49 22 49 53 0 85-133 99-164 35-4-7-7-15-9-22l29-9c8 25 25 45 58 45 34 1 53-17 53-48" id="cd"/><path d="M18-82l6-28h88l-6 28H18" id="ce"/><path d="M6 0l50-261h32L37 0H6" id="cf"/><path d="M111-194c62-3 86 47 72 106H45c-7 38 6 69 45 68 27-1 43-14 53-32l24 11C152-15 129 4 87 4 38 3 12-23 12-71c0-70 32-119 99-123zm44 81c14-66-71-72-95-28-4 8-8 17-11 28h106" id="cg"/><path d="M51-54c-9 22 5 41 31 30L79-1C43 14 10-4 19-52l22-115H19l5-23h22l19-43h21l-9 43h35l-4 23H73" id="ch"/><path d="M66-151c12-25 30-51 66-40l-6 26C45-176 58-65 38 0H6l36-190h30" id="ci"/><g id="ar"><use transform="matrix(0.04938271604938272,0,0,0.04938271604938272,0,0)" xlink:href="#cd"/><use transform="matrix(0.04938271604938272,0,0,0.04938271604938272,9.876543209876544,0)" xlink:href="#ce"/><use transform="matrix(0.04938271604938272,0,0,0.04938271604938272,15.753086419753087,0)" xlink:href="#cf"/><use transform="matrix(0.04938271604938272,0,0,0.04938271604938272,19.654320987654323,0)" xlink:href="#cg"/><use transform="matrix(0.04938271604938272,0,0,0.04938271604938272,29.530864197530867,0)" xlink:href="#ch"/><use transform="matrix(0.04938271604938272,0,0,0.04938271604938272,34.46913580246914,0)" xlink:href="#ch"/><use transform="matrix(0.04938271604938272,0,0,0.04938271604938272,39.40740740740741,0)" xlink:href="#cg"/><use transform="matrix(0.04938271604938272,0,0,0.04938271604938272,49.283950617283956,0)" xlink:href="#ci"/></g><path d="M44-68c0 29 11 47 38 47 30 0 42-19 51-41l28 9C148-21 126 4 82 4 31 4 10-29 12-85c3-77 74-140 146-93 12 8 15 23 18 40l-31 5c-1-22-13-36-36-36-52 0-65 49-65 101" id="cj"/><path d="M30-147c31-64 166-65 159 27C183-49 158 1 86 4 9 8 1-88 30-147zM88-20c53 0 68-48 68-100 0-31-11-51-44-50-52 1-68 46-68 97 0 32 13 53 44 53" id="ck"/><path d="M67 3c-93-2-31-127-26-193h32L48-50c-3 39 53 32 70 12 30-34 30-101 43-152h32L157 0h-30c1-10 6-24 4-33-14 20-29 37-64 36" id="cl"/><path d="M67-158c22-48 132-52 116 29L158 0h-32l25-140c3-38-53-32-70-12C52-117 51-52 38 0H6l36-190h30" id="cm"/><path d="M198-190L69 30C53 58 25 83-20 72c4-11-1-27 19-22 33-1 43-29 59-52L20-190h32L79-34l84-156h35" id="cn"/><g id="as"><use transform="matrix(0.04938271604938272,0,0,0.04938271604938272,0,0)" xlink:href="#cj"/><use transform="matrix(0.04938271604938272,0,0,0.04938271604938272,8.88888888888889,0)" xlink:href="#ck"/><use transform="matrix(0.04938271604938272,0,0,0.04938271604938272,18.765432098765434,0)" xlink:href="#cl"/><use transform="matrix(0.04938271604938272,0,0,0.04938271604938272,28.641975308641978,0)" xlink:href="#cm"/><use transform="matrix(0.04938271604938272,0,0,0.04938271604938272,38.51851851851852,0)" xlink:href="#ch"/><use transform="matrix(0.04938271604938272,0,0,0.04938271604938272,43.45679012345679,0)" xlink:href="#ci"/><use transform="matrix(0.04938271604938272,0,0,0.04938271604938272,49.333333333333336,0)" xlink:href="#cn"/></g><path d="M133-28C103 26-5 8 13-77c13-62 24-115 90-117 29-1 46 15 56 35l19-102h32L160 0h-30zM45-64c-2 27 10 43 35 43 54-1 69-50 69-103 0-29-15-46-42-46-53-1-58 58-62 106" id="co"/><g id="at"><use transform="matrix(0.04938271604938272,0,0,0.04938271604938272,0,0)" xlink:href="#cj"/><use transform="matrix(0.04938271604938272,0,0,0.04938271604938272,8.88888888888889,0)" xlink:href="#ck"/><use transform="matrix(0.04938271604938272,0,0,0.04938271604938272,18.765432098765434,0)" xlink:href="#co"/><use transform="matrix(0.04938271604938272,0,0,0.04938271604938272,28.641975308641978,0)" xlink:href="#cg"/></g><g id="au"><use transform="matrix(0.04938271604938272,0,0,0.04938271604938272,0,0)" xlink:href="#aK"/><use transform="matrix(0.04938271604938272,0,0,0.04938271604938272,9.876543209876544,0)" xlink:href="#aI"/><use transform="matrix(0.04938271604938272,0,0,0.04938271604938272,18.765432098765434,0)" xlink:href="#aT"/><use transform="matrix(0.04938271604938272,0,0,0.04938271604938272,28.641975308641978,0)" xlink:href="#aI"/><use transform="matrix(0.04938271604938272,0,0,0.04938271604938272,37.53086419753087,0)" xlink:href="#aL"/></g><g id="av"><use transform="matrix(0.04938271604938272,0,0,0.04938271604938272,0,0)" xlink:href="#aM"/><use transform="matrix(0.04938271604938272,0,0,0.04938271604938272,11.851851851851853,0)" xlink:href="#aW"/><use transform="matrix(0.04938271604938272,0,0,0.04938271604938272,16.790123456790127,0)" xlink:href="#aK"/><use transform="matrix(0.04938271604938272,0,0,0.04938271604938272,26.666666666666668,0)" xlink:href="#aW"/><use transform="matrix(0.04938271604938272,0,0,0.04938271604938272,31.60493827160494,0)" xlink:href="#aQ"/><use transform="matrix(0.04938271604938272,0,0,0.04938271604938272,41.48148148148149,0)" xlink:href="#aR"/><use transform="matrix(0.04938271604938272,0,0,0.04938271604938272,55.308641975308646,0)" xlink:href="#aS"/><use transform="matrix(0.04938271604938272,0,0,0.04938271604938272,61.18518518518519,0)" xlink:href="#bF"/><use transform="matrix(0.04938271604938272,0,0,0.04938271604938272,70.0246913580247,0)" xlink:href="#aQ"/><use transform="matrix(0.04938271604938272,0,0,0.04938271604938272,79.90123456790124,0)" xlink:href="#aS"/><use transform="matrix(0.04938271604938272,0,0,0.04938271604938272,85.77777777777779,0)" xlink:href="#aS"/><use transform="matrix(0.04938271604938272,0,0,0.04938271604938272,91.65432098765433,0)" xlink:href="#aV"/><use transform="matrix(0.04938271604938272,0,0,0.04938271604938272,95.55555555555557,0)" xlink:href="#aW"/><use transform="matrix(0.04938271604938272,0,0,0.04938271604938272,100.49382716049385,0)" xlink:href="#aJ"/><use transform="matrix(0.04938271604938272,0,0,0.04938271604938272,110.3703703703704,0)" xlink:href="#aS"/><use transform="matrix(0.04938271604938272,0,0,0.04938271604938272,116.24691358024694,0)" xlink:href="#bl"/></g><g id="aw"><use transform="matrix(0.05,0,0,0.05,0,0)" xlink:href="#aI"/><use transform="matrix(0.05,0,0,0.05,9,0)" xlink:href="#aW"/><use transform="matrix(0.05,0,0,0.05,14,0)" xlink:href="#aK"/><use transform="matrix(0.05,0,0,0.05,24,0)" xlink:href="#aW"/><use transform="matrix(0.05,0,0,0.05,29,0)" xlink:href="#aQ"/></g><g id="ax"><use transform="matrix(0.05,0,0,0.05,0,0)" xlink:href="#aJ"/><use transform="matrix(0.05,0,0,0.05,10,0)" xlink:href="#aU"/><use transform="matrix(0.05,0,0,0.05,20,0)" xlink:href="#aW"/><use transform="matrix(0.05,0,0,0.05,25,0)" xlink:href="#aJ"/><use transform="matrix(0.05,0,0,0.05,35,0)" xlink:href="#aT"/><use transform="matrix(0.05,0,0,0.05,45,0)" xlink:href="#aL"/></g><g id="ay"><use transform="matrix(0.05,0,0,0.05,0,0)" xlink:href="#bf"/><use transform="matrix(0.05,0,0,0.05,12,0)" xlink:href="#aK"/><use transform="matrix(0.05,0,0,0.05,22,0)" xlink:href="#aS"/><use transform="matrix(0.05,0,0,0.05,27.950000000000003,0)" xlink:href="#aW"/><use transform="matrix(0.05,0,0,0.05,32.95,0)" xlink:href="#bb"/><use transform="matrix(0.05,0,0,0.05,42.95,0)" xlink:href="#bE"/><use transform="matrix(0.05,0,0,0.05,57.900000000000006,0)" xlink:href="#aK"/><use transform="matrix(0.05,0,0,0.05,67.9,0)" xlink:href="#aW"/><use transform="matrix(0.05,0,0,0.05,72.9,0)" xlink:href="#aQ"/><use transform="matrix(0.05,0,0,0.05,82.9,0)" xlink:href="#aS"/><use transform="matrix(0.05,0,0,0.05,88.85000000000001,0)" xlink:href="#aV"/><use transform="matrix(0.05,0,0,0.05,92.80000000000001,0)" xlink:href="#aK"/><use transform="matrix(0.05,0,0,0.05,102.80000000000001,0)" xlink:href="#aP"/></g><path fill="#19967d" d="M30-248c87 1 191-15 191 75 0 78-77 80-158 76V0H30v-248zm33 125c57 0 124 11 124-50 0-59-68-47-124-48v98" id="cp"/><path fill="#19967d" d="M100-194c62-1 85 37 85 99 1 63-27 99-86 99S16-35 15-95c0-66 28-99 85-99zM99-20c44 1 53-31 53-75 0-43-8-75-51-75s-53 32-53 75 10 74 51 75" id="cq"/><path fill="#19967d" d="M135-143c-3-34-86-38-87 0 15 53 115 12 119 90S17 21 10-45l28-5c4 36 97 45 98 0-10-56-113-15-118-90-4-57 82-63 122-42 12 7 21 19 24 35" id="cr"/><path fill="#19967d" d="M24-231v-30h32v30H24zM24 0v-190h32V0H24" id="cs"/><path fill="#19967d" d="M59-47c-2 24 18 29 38 22v24C64 9 27 4 27-40v-127H5v-23h24l9-43h21v43h35v23H59v120" id="ct"/><path fill="#19967d" d="M117-194c89-4 53 116 60 194h-32v-121c0-31-8-49-39-48C34-167 62-67 57 0H25l-1-190h30c1 10-1 24 2 32 11-22 29-35 61-36" id="cu"/><path fill="#19967d" d="M141-36C126-15 110 5 73 4 37 3 15-17 15-53c-1-64 63-63 125-63 3-35-9-54-41-54-24 1-41 7-42 31l-33-3c5-37 33-52 76-52 45 0 72 20 72 64v82c-1 20 7 32 28 27v20c-31 9-61-2-59-35zM48-53c0 20 12 33 32 33 41-3 63-29 60-74-43 2-92-5-92 41" id="cv"/><path fill="#19967d" d="M24 0v-261h32V0H24" id="cw"/><g id="az"><use transform="matrix(0.05,0,0,0.05,0,0)" xlink:href="#cp"/><use transform="matrix(0.05,0,0,0.05,12,0)" xlink:href="#cq"/><use transform="matrix(0.05,0,0,0.05,22,0)" xlink:href="#cr"/><use transform="matrix(0.05,0,0,0.05,31,0)" xlink:href="#cs"/><use transform="matrix(0.05,0,0,0.05,34.95,0)" xlink:href="#ct"/><use transform="matrix(0.05,0,0,0.05,39.95,0)" xlink:href="#cs"/><use transform="matrix(0.05,0,0,0.05,43.900000000000006,0)" xlink:href="#cq"/><use transform="matrix(0.05,0,0,0.05,53.900000000000006,0)" xlink:href="#cu"/><use transform="matrix(0.05,0,0,0.05,63.900000000000006,0)" xlink:href="#cv"/><use transform="matrix(0.05,0,0,0.05,73.9,0)" xlink:href="#cw"/></g><path fill="#19967d" d="M240 0l2-218c-23 76-54 145-80 218h-23L58-218 59 0H30v-248h44l77 211c21-75 51-140 76-211h43V0h-30" id="cx"/><path fill="#19967d" d="M100-194c63 0 86 42 84 106H49c0 40 14 67 53 68 26 1 43-12 49-29l28 8c-11 28-37 45-77 45C44 4 14-33 15-96c1-61 26-98 85-98zm52 81c6-60-76-77-97-28-3 7-6 17-6 28h103" id="cy"/><path fill="#19967d" d="M85-194c31 0 48 13 60 33l-1-100h32l1 261h-30c-2-10 0-23-3-31C134-8 116 4 85 4 32 4 16-35 15-94c0-66 23-100 70-100zm9 24c-40 0-46 34-46 75 0 40 6 74 45 74 42 0 51-32 51-76 0-42-9-74-50-73" id="cz"/><g id="aA"><use transform="matrix(0.05,0,0,0.05,0,0)" xlink:href="#cx"/><use transform="matrix(0.05,0,0,0.05,14.950000000000001,0)" xlink:href="#cy"/><use transform="matrix(0.05,0,0,0.05,24.950000000000003,0)" xlink:href="#ct"/><use transform="matrix(0.05,0,0,0.05,29.950000000000003,0)" xlink:href="#cv"/><use transform="matrix(0.05,0,0,0.05,39.95,0)" xlink:href="#cz"/><use transform="matrix(0.05,0,0,0.05,49.95,0)" xlink:href="#cv"/><use transform="matrix(0.05,0,0,0.05,59.95,0)" xlink:href="#ct"/><use transform="matrix(0.05,0,0,0.05,64.95,0)" xlink:href="#cv"/></g><path fill="#c92d39" d="M185-189c-5-48-123-54-124 2 14 75 158 14 163 119 3 78-121 87-175 55-17-10-28-26-33-46l33-7c5 56 141 63 141-1 0-78-155-14-162-118-5-82 145-84 179-34 5 7 8 16 11 25" id="cA"/><path fill="#c92d39" d="M141-36C126-15 110 5 73 4 37 3 15-17 15-53c-1-64 63-63 125-63 3-35-9-54-41-54-24 1-41 7-42 31l-33-3c5-37 33-52 76-52 45 0 72 20 72 64v82c-1 20 7 32 28 27v20c-31 9-61-2-59-35zM48-53c0 20 12 33 32 33 41-3 63-29 60-74-43 2-92-5-92 41" id="cB"/><path fill="#c92d39" d="M210-169c-67 3-38 105-44 169h-31v-121c0-29-5-50-35-48C34-165 62-65 56 0H25l-1-190h30c1 10-1 24 2 32 10-44 99-50 107 0 11-21 27-35 58-36 85-2 47 119 55 194h-31v-121c0-29-5-49-35-48" id="cC"/><path fill="#c92d39" d="M115-194c55 1 70 41 70 98S169 2 115 4C84 4 66-9 55-30l1 105H24l-1-265h31l2 30c10-21 28-34 59-34zm-8 174c40 0 45-34 45-75s-6-73-45-74c-42 0-51 32-51 76 0 43 10 73 51 73" id="cD"/><path fill="#c92d39" d="M24 0v-261h32V0H24" id="cE"/><path fill="#c92d39" d="M100-194c63 0 86 42 84 106H49c0 40 14 67 53 68 26 1 43-12 49-29l28 8c-11 28-37 45-77 45C44 4 14-33 15-96c1-61 26-98 85-98zm52 81c6-60-76-77-97-28-3 7-6 17-6 28h103" id="cF"/><g id="aB"><use transform="matrix(0.05,0,0,0.05,0,0)" xlink:href="#cA"/><use transform="matrix(0.05,0,0,0.05,12,0)" xlink:href="#cB"/><use transform="matrix(0.05,0,0,0.05,22,0)" xlink:href="#cC"/><use transform="matrix(0.05,0,0,0.05,36.95,0)" xlink:href="#cD"/><use transform="matrix(0.05,0,0,0.05,46.95,0)" xlink:href="#cE"/><use transform="matrix(0.05,0,0,0.05,50.900000000000006,0)" xlink:href="#cF"/></g><path fill="#c92d39" d="M212-179c-10-28-35-45-73-45-59 0-87 40-87 99 0 60 29 101 89 101 43 0 62-24 78-52l27 14C228-24 195 4 139 4 59 4 22-46 18-125c-6-104 99-153 187-111 19 9 31 26 39 46" id="cG"/><path fill="#c92d39" d="M135-143c-3-34-86-38-87 0 15 53 115 12 119 90S17 21 10-45l28-5c4 36 97 45 98 0-10-56-113-15-118-90-4-57 82-63 122-42 12 7 21 19 24 35" id="cH"/><path fill="#c92d39" d="M24-231v-30h32v30H24zM24 0v-190h32V0H24" id="cI"/><path fill="#c92d39" d="M101-234c-31-9-42 10-38 44h38v23H63V0H32v-167H5v-23h27c-7-52 17-82 69-68v24" id="cJ"/><path fill="#c92d39" d="M96-169c-40 0-48 33-48 73s9 75 48 75c24 0 41-14 43-38l32 2c-6 37-31 61-74 61-59 0-76-41-82-99-10-93 101-131 147-64 4 7 5 14 7 22l-32 3c-4-21-16-35-41-35" id="cK"/><path fill="#c92d39" d="M59-47c-2 24 18 29 38 22v24C64 9 27 4 27-40v-127H5v-23h24l9-43h21v43h35v23H59v120" id="cL"/><path fill="#c92d39" d="M100-194c62-1 85 37 85 99 1 63-27 99-86 99S16-35 15-95c0-66 28-99 85-99zM99-20c44 1 53-31 53-75 0-43-8-75-51-75s-53 32-53 75 10 74 51 75" id="cM"/><path fill="#c92d39" d="M117-194c89-4 53 116 60 194h-32v-121c0-31-8-49-39-48C34-167 62-67 57 0H25l-1-190h30c1 10-1 24 2 32 11-22 29-35 61-36" id="cN"/><g id="aC"><use transform="matrix(0.05,0,0,0.05,0,0)" xlink:href="#cG"/><use transform="matrix(0.05,0,0,0.05,12.950000000000001,0)" xlink:href="#cE"/><use transform="matrix(0.05,0,0,0.05,16.900000000000002,0)" xlink:href="#cB"/><use transform="matrix(0.05,0,0,0.05,26.900000000000002,0)" xlink:href="#cH"/><use transform="matrix(0.05,0,0,0.05,35.900000000000006,0)" xlink:href="#cH"/><use transform="matrix(0.05,0,0,0.05,44.900000000000006,0)" xlink:href="#cI"/><use transform="matrix(0.05,0,0,0.05,48.85000000000001,0)" xlink:href="#cJ"/><use transform="matrix(0.05,0,0,0.05,53.85,0)" xlink:href="#cI"/><use transform="matrix(0.05,0,0,0.05,57.80000000000001,0)" xlink:href="#cK"/><use transform="matrix(0.05,0,0,0.05,66.80000000000001,0)" xlink:href="#cB"/><use transform="matrix(0.05,0,0,0.05,76.80000000000001,0)" xlink:href="#cL"/><use transform="matrix(0.05,0,0,0.05,81.80000000000001,0)" xlink:href="#cI"/><use transform="matrix(0.05,0,0,0.05,85.75000000000001,0)" xlink:href="#cM"/><use transform="matrix(0.05,0,0,0.05,95.75000000000001,0)" xlink:href="#cN"/></g><path fill="#c92d39" d="M240 0l2-218c-23 76-54 145-80 218h-23L58-218 59 0H30v-248h44l77 211c21-75 51-140 76-211h43V0h-30" id="cO"/><path fill="#c92d39" d="M85-194c31 0 48 13 60 33l-1-100h32l1 261h-30c-2-10 0-23-3-31C134-8 116 4 85 4 32 4 16-35 15-94c0-66 23-100 70-100zm9 24c-40 0-46 34-46 75 0 40 6 74 45 74 42 0 51-32 51-76 0-42-9-74-50-73" id="cP"/><g id="aD"><use transform="matrix(0.05,0,0,0.05,0,0)" xlink:href="#cO"/><use transform="matrix(0.05,0,0,0.05,14.950000000000001,0)" xlink:href="#cF"/><use transform="matrix(0.05,0,0,0.05,24.950000000000003,0)" xlink:href="#cL"/><use transform="matrix(0.05,0,0,0.05,29.950000000000003,0)" xlink:href="#cB"/><use transform="matrix(0.05,0,0,0.05,39.95,0)" xlink:href="#cP"/><use transform="matrix(0.05,0,0,0.05,49.95,0)" xlink:href="#cB"/><use transform="matrix(0.05,0,0,0.05,59.95,0)" xlink:href="#cL"/><use transform="matrix(0.05,0,0,0.05,64.95,0)" xlink:href="#cB"/></g><path fill="#0c7cba" d="M160-131c35 5 61 23 61 61C221 17 115-2 30 0v-248c76 3 177-17 177 60 0 33-19 50-47 57zm-97-11c50-1 110 9 110-42 0-47-63-36-110-37v79zm0 115c55-2 124 14 124-45 0-56-70-42-124-44v89" id="cQ"/><path fill="#0c7cba" d="M141-36C126-15 110 5 73 4 37 3 15-17 15-53c-1-64 63-63 125-63 3-35-9-54-41-54-24 1-41 7-42 31l-33-3c5-37 33-52 76-52 45 0 72 20 72 64v82c-1 20 7 32 28 27v20c-31 9-61-2-59-35zM48-53c0 20 12 33 32 33 41-3 63-29 60-74-43 2-92-5-92 41" id="cR"/><path fill="#0c7cba" d="M135-143c-3-34-86-38-87 0 15 53 115 12 119 90S17 21 10-45l28-5c4 36 97 45 98 0-10-56-113-15-118-90-4-57 82-63 122-42 12 7 21 19 24 35" id="cS"/><path fill="#0c7cba" d="M24-231v-30h32v30H24zM24 0v-190h32V0H24" id="cT"/><path fill="#0c7cba" d="M96-169c-40 0-48 33-48 73s9 75 48 75c24 0 41-14 43-38l32 2c-6 37-31 61-74 61-59 0-76-41-82-99-10-93 101-131 147-64 4 7 5 14 7 22l-32 3c-4-21-16-35-41-35" id="cU"/><g id="aE"><use transform="matrix(0.05,0,0,0.05,0,0)" xlink:href="#cQ"/><use transform="matrix(0.05,0,0,0.05,12,0)" xlink:href="#cR"/><use transform="matrix(0.05,0,0,0.05,22,0)" xlink:href="#cS"/><use transform="matrix(0.05,0,0,0.05,31,0)" xlink:href="#cT"/><use transform="matrix(0.05,0,0,0.05,34.95,0)" xlink:href="#cU"/></g><path fill="#0c7cba" d="M212-179c-10-28-35-45-73-45-59 0-87 40-87 99 0 60 29 101 89 101 43 0 62-24 78-52l27 14C228-24 195 4 139 4 59 4 22-46 18-125c-6-104 99-153 187-111 19 9 31 26 39 46" id="cV"/><path fill="#0c7cba" d="M59-47c-2 24 18 29 38 22v24C64 9 27 4 27-40v-127H5v-23h24l9-43h21v43h35v23H59v120" id="cW"/><path fill="#0c7cba" d="M24 0v-261h32V0H24" id="cX"/><path fill="#0c7cba" d="M100-194c62-1 85 37 85 99 1 63-27 99-86 99S16-35 15-95c0-66 28-99 85-99zM99-20c44 1 53-31 53-75 0-43-8-75-51-75s-53 32-53 75 10 74 51 75" id="cY"/><path fill="#0c7cba" d="M177-190C167-65 218 103 67 71c-23-6-38-20-44-43l32-5c15 47 100 32 89-28v-30C133-14 115 1 83 1 29 1 15-40 15-95c0-56 16-97 71-98 29-1 48 16 59 35 1-10 0-23 2-32h30zM94-22c36 0 50-32 50-73 0-42-14-75-50-75-39 0-46 34-46 75s6 73 46 73" id="cZ"/><path fill="#0c7cba" d="M84 4C-5 8 30-112 23-190h32v120c0 31 7 50 39 49 72-2 45-101 50-169h31l1 190h-30c-1-10 1-25-2-33-11 22-28 36-60 37" id="da"/><path fill="#0c7cba" d="M100-194c63 0 86 42 84 106H49c0 40 14 67 53 68 26 1 43-12 49-29l28 8c-11 28-37 45-77 45C44 4 14-33 15-96c1-61 26-98 85-98zm52 81c6-60-76-77-97-28-3 7-6 17-6 28h103" id="db"/><g id="aF"><use transform="matrix(0.05,0,0,0.05,0,0)" xlink:href="#cV"/><use transform="matrix(0.05,0,0,0.05,12.950000000000001,0)" xlink:href="#cR"/><use transform="matrix(0.05,0,0,0.05,22.950000000000003,0)" xlink:href="#cW"/><use transform="matrix(0.05,0,0,0.05,27.950000000000003,0)" xlink:href="#cR"/><use transform="matrix(0.05,0,0,0.05,37.95,0)" xlink:href="#cX"/><use transform="matrix(0.05,0,0,0.05,41.900000000000006,0)" xlink:href="#cY"/><use transform="matrix(0.05,0,0,0.05,51.900000000000006,0)" xlink:href="#cZ"/><use transform="matrix(0.05,0,0,0.05,61.900000000000006,0)" xlink:href="#da"/><use transform="matrix(0.05,0,0,0.05,71.9,0)" xlink:href="#db"/></g><path fill="#0c7cba" d="M33 0v-248h34V0H33" id="dc"/><path fill="#0c7cba" d="M210-169c-67 3-38 105-44 169h-31v-121c0-29-5-50-35-48C34-165 62-65 56 0H25l-1-190h30c1 10-1 24 2 32 10-44 99-50 107 0 11-21 27-35 58-36 85-2 47 119 55 194h-31v-121c0-29-5-49-35-48" id="dd"/><g id="aG"><use transform="matrix(0.05,0,0,0.05,0,0)" xlink:href="#dc"/><use transform="matrix(0.05,0,0,0.05,5,0)" xlink:href="#cW"/><use transform="matrix(0.05,0,0,0.05,10,0)" xlink:href="#db"/><use transform="matrix(0.05,0,0,0.05,20,0)" xlink:href="#dd"/></g><path fill="#0c7cba" d="M240 0l2-218c-23 76-54 145-80 218h-23L58-218 59 0H30v-248h44l77 211c21-75 51-140 76-211h43V0h-30" id="de"/><path fill="#0c7cba" d="M85-194c31 0 48 13 60 33l-1-100h32l1 261h-30c-2-10 0-23-3-31C134-8 116 4 85 4 32 4 16-35 15-94c0-66 23-100 70-100zm9 24c-40 0-46 34-46 75 0 40 6 74 45 74 42 0 51-32 51-76 0-42-9-74-50-73" id="df"/><g id="aH"><use transform="matrix(0.05,0,0,0.05,0,0)" xlink:href="#de"/><use transform="matrix(0.05,0,0,0.05,14.950000000000001,0)" xlink:href="#db"/><use transform="matrix(0.05,0,0,0.05,24.950000000000003,0)" xlink:href="#cW"/><use transform="matrix(0.05,0,0,0.05,29.950000000000003,0)" xlink:href="#cR"/><use transform="matrix(0.05,0,0,0.05,39.95,0)" xlink:href="#df"/><use transform="matrix(0.05,0,0,0.05,49.95,0)" xlink:href="#cR"/><use transform="matrix(0.05,0,0,0.05,59.95,0)" xlink:href="#cW"/><use transform="matrix(0.05,0,0,0.05,64.95,0)" xlink:href="#cR"/></g></defs></g></svg>